<svg width="21" height="21" viewBox="0 0 21 21" fill="none" xmlns="http://www.w3.org/2000/svg">
<path fill-rule="evenodd" clip-rule="evenodd" d="M12.6332 7.36931C12.6332 7.71931 12.3499 7.99431 12.0082 7.99431C11.6582 7.99431 11.3832 7.71931 11.3832 7.36931C11.3832 7.02764 11.6582 6.74431 12.0082 6.74431C12.3499 6.74431 12.6332 7.01931 12.6332 7.36098V7.36931ZM9.39152 7.36931C9.39152 7.71931 9.10819 7.99431 8.76655 7.99431C8.41655 7.99431 8.14155 7.71931 8.14155 7.36931C8.14155 7.02764 8.41655 6.74431 8.76655 6.74431C9.10819 6.74431 9.39152 7.01931 9.39152 7.36098V7.36931ZM13.923 5.28538C13.8269 5.19864 13.806 5.05411 13.8792 4.94731L14.7665 3.65264C14.9665 3.36931 14.8915 2.97764 14.6082 2.78598C14.3249 2.58598 13.9332 2.66098 13.7415 2.94431L12.8149 4.29026C12.7441 4.39292 12.6089 4.42715 12.4949 4.37665C11.8788 4.10362 11.1979 3.96098 10.4832 3.96098C9.76177 3.96098 9.06744 4.11007 8.443 4.38992C8.32697 4.44192 8.18877 4.40572 8.11891 4.29948L7.23322 2.95264C7.04155 2.66098 6.65822 2.58598 6.36655 2.77764C6.08322 2.96931 5.99989 3.35264 6.19155 3.64431L7.06834 4.97411C7.13848 5.08048 7.11692 5.22211 7.02254 5.30771C5.98744 6.24661 5.34155 7.59952 5.34155 9.1026C5.34155 9.19927 5.4199 9.2776 5.51655 9.2776H15.4499C15.5465 9.2776 15.6249 9.19927 15.6249 9.1026C15.6249 7.59298 14.9652 6.22575 13.923 5.28538Z" fill="white"/>
<path fill-rule="evenodd" clip-rule="evenodd" d="M5.59155 10.5273C5.45348 10.5273 5.34155 10.6393 5.34155 10.7773V14.8773C5.34155 15.469 5.81655 15.944 6.39989 15.944H7.70822C7.84629 15.944 7.95822 16.0559 7.95822 16.194V17.6607C7.95822 18.0107 8.24155 18.2857 8.58322 18.2857C8.93319 18.2857 9.20819 18.0107 9.20819 17.6607V16.194C9.20819 16.0559 9.32019 15.944 9.45819 15.944H11.3332C11.4713 15.944 11.5832 16.0559 11.5832 16.194V17.6607C11.5832 18.0107 11.8582 18.2857 12.2082 18.2857C12.5499 18.2857 12.8332 18.0107 12.8332 17.6607V16.194C12.8332 16.0559 12.9452 15.944 13.0832 15.944H14.5665C15.1499 15.944 15.6249 15.469 15.6249 14.8773V10.7773C15.6249 10.6393 15.5129 10.5273 15.3749 10.5273H5.59155Z" fill="white"/>
<path fill-rule="evenodd" clip-rule="evenodd" d="M3 9.01953C2.65833 9.01953 2.375 9.30286 2.375 9.64453V13.5445C2.375 13.8945 2.65833 14.1695 3 14.1695C3.34167 14.1695 3.625 13.8945 3.625 13.5445V9.64453C3.625 9.30286 3.34167 9.01953 3 9.01953Z" fill="white"/>
<path fill-rule="evenodd" clip-rule="evenodd" d="M18 9.01953C17.6583 9.01953 17.375 9.30286 17.375 9.64453V13.5445C17.375 13.8945 17.6583 14.1695 18 14.1695C18.3417 14.1695 18.625 13.8945 18.625 13.5445V9.64453C18.625 9.30286 18.3417 9.01953 18 9.01953Z" fill="white"/>
</svg>
