<svg width="140" height="141" viewBox="0 0 140 141" fill="none" xmlns="http://www.w3.org/2000/svg">
<path d="M100.406 25.1172L101.622 25.2034L102.665 25.4622L103.621 25.9797L104.402 26.5834L105.184 27.3597L105.706 28.2222L106.053 29.1709V30.1197L105.879 30.6372L106.748 30.2059L107.443 30.0334H108.051L108.746 30.2922L109.354 30.9822L109.702 31.7584L109.789 32.1034L109.876 33.7422L109.528 35.1222L108.833 36.4159L108.051 37.1922L107.096 37.7959L107.009 38.1409L108.138 41.7634L108.746 44.3509L109.007 46.3347V48.5772L108.746 50.2159L108.399 51.2509L107.791 52.4584L107.182 53.2347L106.314 54.0972L105.358 54.7009L104.229 55.2184L103.273 55.4772H103.012L103.273 58.4097L103.707 62.3772L104.489 62.2909H107.791L109.962 62.5497L111.874 62.8947L114.132 63.4122L116.999 64.2747L119.779 65.3959L121.43 66.1722L123.428 67.2934L125.252 68.5009L126.729 69.6222L127.685 70.3984L128.727 71.3472L130.552 73.1584L131.334 74.1072L132.202 75.2284L133.245 76.7809L134.027 78.0747L134.982 79.9722L135.677 81.7834L135.938 82.9909L136.025 83.7672V85.0609L135.764 86.6997L135.243 88.2522L134.374 89.8909L133.679 90.8397L132.984 91.7022L132.202 92.5647L131.16 93.5134L129.944 94.4622L128.119 95.6697L126.556 96.5322L124.557 97.4809L122.386 98.2572L120.909 98.6884L119.084 99.0334L118.563 99.1197L118.737 101.276L118.824 103.001V104.036L118.737 105.416L119.432 107.745L119.779 109.728L120.214 113.351L121.343 125.685V126.633L120.996 126.806L120.561 126.72L120.387 126.288L119.345 113.955L118.997 110.677V110.073L117.347 111.108L115.175 112.23L112.916 113.092L110.657 113.782L108.833 114.213L106.922 114.558L105.011 114.817L101.883 115.076H97.4525L94.4119 114.817L91.1975 114.3L89.1125 113.782L87.0275 113.092L85.2031 112.316L84.3344 111.885L84.2475 113.006L84.1606 116.197V122.925L84.3344 124.822L84.4212 125.34V126.202H83.7262L83.5525 125.857L83.2919 124.046L83.205 122.925V118.698L83.3787 114.041L83.7262 108.866L84.4212 100.672L84.7687 97.2222L85.4637 91.3572L86.0719 86.5272L86.5931 83.6809L87.1144 81.5247L87.6356 79.9722L87.8094 79.7134L88.07 79.7997L87.9831 80.8347L87.5487 83.2497L86.9406 87.3897L86.3325 92.3059L85.8112 97.3084L85.6375 99.2922L85.4637 102.742L85.3769 103.863L86.1587 104.64L87.4619 105.588L88.9387 106.451L89.6337 106.796H89.8075L89.1125 104.898L88.6781 102.828L88.5044 100.845L88.6781 100.672H89.0256L89.6337 103.691L90.2419 105.33L90.9369 106.71L91.2844 107.313L92.6744 107.745L94.5856 108.176L96.8444 108.521L98.495 108.693L100.406 108.78H102.231L104.837 108.607L107.182 108.262L109.615 107.745L111.092 107.313H111.266V104.985L111.005 103.087L111.092 102.57L111.613 102.742L111.874 103.777L112.047 104.985L112.221 106.968L115.175 105.933L117.521 104.985L117.607 104.553L117.434 100.068L117.26 96.7047L116.912 92.7372L116.478 89.2009L115.609 83.6809L114.654 78.5059V78.2472L115.088 78.1609L115.349 78.5059L116.131 81.4384L116.826 84.7159L117.26 87.3034L117.347 87.9072H117.521L118.563 86.6997L119.606 85.6647L120.561 84.8884L121.43 84.1122L122.646 83.1634L124.036 82.1284L124.557 82.0422L124.644 82.3009L124.384 82.7322L123.689 83.3359L122.82 84.1122L122.125 84.7159L120.996 85.7509L119.779 86.9584L118.824 88.1659L117.955 89.4597L117.781 89.8047V90.5809L118.216 94.3759L118.563 98.0847L122.038 97.2222L124.036 96.5322L125.252 96.0147L127.164 94.9797L128.727 93.9447L130.117 92.8234L131.507 91.5297L132.463 90.4084L133.332 89.1147L133.94 87.9072L134.374 86.6134L134.635 85.1472V83.2497L134.287 81.5247L133.679 79.7134L132.984 78.3334L132.289 77.1259L131.247 75.6597L130.291 74.5384L129.683 73.8484L128.641 72.7272L127.598 71.7784L126.729 71.0022L125.252 69.8809L123.949 68.9322L122.299 67.8972L120.387 66.8622L118.216 65.8272L115.957 64.9647L113.872 64.2747L113.003 64.0159L112.742 65.0509L112.047 66.6897L111.352 67.8972L110.484 69.0184L109.528 70.0534L108.572 70.7434L107.443 71.2609H106.922L106.314 70.9159V70.7434L106.053 70.6572V70.4847H105.792L105.619 70.9159L104.576 72.4684L103.881 73.4172L103.534 73.9347L103.794 74.9697L104.229 78.5059L104.576 82.5597L104.837 87.0447V92.2197L104.576 94.3759L104.316 95.2384L103.968 95.7559L103.273 96.4459L101.709 97.5672L100.493 98.2572L99.7112 98.3434L99.2769 97.9984L98.495 96.7909L97.6262 94.9797L96.8444 92.8234L96.6706 92.1334L96.7575 91.0122L97.6262 86.6997L99.2769 79.5409L100.319 74.8834L100.667 74.4522L101.709 73.6759L101.622 73.3309L101.101 73.4172L100.406 73.7622L99.9719 73.6759L98.9294 72.8997L98.1475 72.2097H97.8869L97.1919 73.5897L96.8444 74.1072L96.4969 74.0209L96.2362 73.6759L96.1494 73.4172L93.8906 72.2959L92.3269 71.2609L91.1975 70.3122L90.5894 69.7084L89.46 68.2422L88.6781 66.9484L87.8962 65.3097V65.1372L86.68 65.4822L86.5062 65.1372L86.8537 64.7922L88.3306 64.1022L89.6337 63.6709L91.1975 63.3259L93.3694 63.1534L92.5875 58.8409L91.7187 54.4422L91.2844 51.9409L90.155 52.2859H89.3731L88.5044 52.0272L87.6356 51.5097L87.0275 50.9059L86.2456 49.6984L85.7244 48.2322L85.0294 47.3697L84.5081 46.3347V45.2134L84.7687 44.5234L84.9425 44.2647L84.3344 44.5234L83.8131 44.6097H82.7706L81.815 44.2647L80.9462 43.4884L80.3381 42.6259L79.8169 41.2459L79.73 40.7284V38.5722L80.0775 37.3647L80.6856 36.4159L81.4675 35.7259L82.51 35.2084L82.8575 35.1222H84.4212L84.8556 35.2084L85.29 33.4834L85.7244 32.4484L86.5062 31.0684L87.4619 29.9472L88.6781 28.9122L90.155 28.1359L91.4581 27.7909L92.0662 27.7047H92.935L94.325 27.9634L95.3675 28.4809L95.9756 28.9122L96.3231 29.2572L96.4969 28.2222L96.9312 27.1872L97.2787 26.6697L97.6262 26.2384L98.495 25.6347L99.6244 25.2034L100.406 25.1172ZM98.5819 33.3109L98.4081 33.7422L98.2344 34.8634V36.9334L97.8869 37.9684L97.3656 38.9172L96.5837 39.9522L95.8019 40.7284L94.5856 41.5047L93.63 41.8497L93.2825 41.9359H92.4137L91.8056 41.7634H91.4581L91.2844 43.6609L91.0237 44.5234L90.5894 45.1272L90.0681 45.3859L88.765 45.6447L88.8519 46.1622L88.3306 46.2484L87.6356 46.3347L87.1144 46.7659L86.9406 47.2834V47.9734L87.2881 49.2672L87.7225 50.1297L88.4175 50.9059L89.2862 51.3372H90.0681L90.9369 50.9059L91.2844 50.4747L91.545 50.3022H91.9794L92.3269 51.8547L93.1956 56.4259L93.8906 59.8759L94.4119 63.0672L94.7594 63.3259L96.3231 63.8434L100.319 65.6547H100.58L101.622 64.1884L102.665 62.9809L102.752 62.4634L102.317 59.3584L102.231 58.3234L102.144 55.4772L100.667 55.3909L99.19 55.0459L97.8869 54.5284L97.105 54.0109V53.5797L97.3656 53.4934L99.0162 54.0972L100.58 54.4422H102.665L104.055 54.0972L105.184 53.4934L106.053 52.8034L106.835 51.9409L107.53 50.6472L107.964 49.0084L108.138 47.2834L108.051 45.5584L107.704 43.3159L107.096 40.7284L106.922 40.5559L105.445 41.5909L105.097 41.7634H104.663L104.402 41.3322L104.489 40.9872L105.271 40.4697L106.574 39.6934L106.748 39.6072L106.574 38.7447L106.401 38.1409L105.619 38.3134L104.316 38.7447L103.186 39.6934H102.752L102.665 39.0897L102.752 38.7447L102.144 38.5722L101.188 38.2272L100.319 37.7097L99.5375 37.0197L99.2769 36.5884L99.1031 35.7259L99.0162 33.4834L98.8425 33.3109H98.5819ZM104.142 63.0672L103.36 63.2397L102.404 64.2747L101.362 65.7409L101.275 66.1722L102.665 66.7759L103.881 67.3797L105.358 68.4147L106.053 69.1047L106.748 70.0534L107.096 70.3984L107.53 70.2259L108.572 69.6222L109.441 68.8459L110.223 67.8972L111.092 66.6034L111.874 65.1372L112.308 64.0159V63.8434L110.31 63.4122L108.399 63.1534L107.356 63.0672H104.142ZM94.0644 64.0159L91.7187 64.1022L89.5469 64.5334L88.4175 64.8784L88.5044 65.2234L89.1994 66.4309L90.155 67.8972L91.0237 69.0184L92.24 70.2259L93.5431 71.0884L95.5412 72.2097L96.4969 72.8134L96.7575 72.5547L98.2344 69.5359L99.4506 67.4659L99.9719 66.6034L99.885 66.3447L98.495 65.7409L96.5837 64.8784L94.325 64.0159H94.0644ZM104.402 109.901L99.2769 109.987L99.3637 111.453L100.927 111.54L101.622 111.712L101.536 112.23L101.101 112.402L99.3637 112.575L99.2769 113.437V114.3H101.536L104.229 114.127L104.837 113.955L104.924 111.54V109.901H104.402ZM116.391 110.246L113.351 111.54L110.918 112.402L108.659 112.92L106.14 113.265V113.696L106.227 113.782H107.356L109.181 113.523L110.918 113.092L113.003 112.316L115.262 111.281L116.565 110.591L116.652 110.246H116.391ZM85.2031 110.418V110.85L85.6375 111.195L88.1569 112.316L90.85 113.265L92.935 113.782L94.9331 114.127L96.5837 114.3L96.7575 113.955L96.5837 113.782L93.63 113.178L91.0237 112.488L87.8962 111.453L85.5506 110.505L85.2031 110.418Z" fill="#333333"/>
<path d="M26.997 59.5312H29.777L31.9488 59.8763L33.947 60.48L36.1188 61.515L37.422 62.3775L38.5513 63.4125L39.2463 64.275L39.8545 65.4825L40.0282 66.0862V67.725L39.6807 68.5875L39.0726 69.45L39.1595 69.795L40.1151 71.4338L40.8101 72.9863L41.2445 74.3663L41.5051 75.4875L41.6788 76.9537L41.592 78.5925L41.3313 79.8863L40.9838 80.835L40.4626 81.6975L39.6807 82.56L38.7251 83.25L38.0301 83.595L36.9007 83.94L36.032 84.1125L35.0763 84.1987H33.947L33.6863 86.01L33.5126 88.1663V88.425L34.4682 88.5975L36.1188 89.2875L37.6826 90.15L39.1595 91.0988L40.202 91.875L41.3313 92.8238L42.5476 94.0313L43.3295 95.0663L43.677 95.7563V96.1875L43.5032 96.36L43.0688 96.2738L42.3738 95.67L38.812 92.1337L38.4645 92.0475L37.2482 93.5137L36.4663 94.5487L35.5107 95.9288L34.4682 97.5675L33.947 98.3438L33.5995 98.1713L32.6438 96.705L31.6013 95.4975L31.2538 95.67L30.5588 96.2738L30.3851 96.5325V110.246L30.5588 112.057L31.2538 112.316L31.6882 112.403H32.2963L33.6863 111.368L35.0763 110.419L36.3795 109.729L36.9876 109.556H38.117L38.8988 110.074L39.6807 111.109L39.5938 111.368L37.8563 112.144L36.2057 112.748L35.5976 112.834L35.5107 112.403L36.8138 111.713L38.4645 111.022L38.2907 110.678L37.8563 110.419H36.8138L35.7713 110.85L34.3813 111.713L32.9045 112.748L32.8176 112.834V114.731L33.3388 116.888L33.947 118.785L34.3813 119.993V120.251L36.5532 119.734L39.1595 118.871L40.5495 118.268L40.9838 117.836L41.0707 117.577L39.0726 118.181H38.6382L38.3776 117.75L38.6382 117.491L40.7232 116.715H40.897L40.8101 115.594L39.4201 116.111L37.9432 116.456L37.5088 116.37V116.025L40.6363 114.818L41.0707 114.731L41.3313 115.163L41.0707 115.594L41.4182 115.939L41.7657 116.974V117.836L41.5051 118.44L40.897 118.958L39.1595 119.734L36.2926 120.683L33.252 121.373L30.3851 121.718L27.3445 121.89L24.0432 121.718L21.9582 121.459L19.7863 121.028L17.5276 120.424L15.3557 119.648L13.2707 118.699L11.6201 117.75L10.1432 116.715L9.1876 115.939L8.31885 115.163L7.71072 114.559L6.92885 113.61L6.23385 112.661L5.27822 111.022L4.58322 109.298L4.23572 108.176L4.06197 107.228L3.9751 106.279V104.726L4.23572 102.915L4.58322 101.449L5.19135 99.7238L6.0601 97.9125L7.18947 96.1013L8.23197 94.7213L9.44822 93.4275L10.5776 92.3925L11.707 91.53L13.097 90.6675L14.3132 89.9775L15.9638 89.2875L17.7882 88.6838L19.0913 88.3388L19.4388 87.6488L20.3945 86.9588L21.437 86.5275L22.6532 86.2688L23.3482 86.1825H26.1282L26.4757 85.2337L26.8232 83.7675L27.0838 81.6113L26.3888 81.87L26.0413 81.9562H24.8251L22.7401 81.525L21.437 81.0938L20.047 80.4038L18.9176 79.6275L17.8751 78.6787L16.9195 77.6438L16.0507 76.2638L15.5295 75.0563L15.182 73.6763L15.0951 73.1588V70.83L15.3557 69.3637L15.7901 67.8975L16.7457 65.9138L17.4407 64.8788L18.3963 63.6713L19.6126 62.4638L20.8288 61.6013L22.0451 60.9113L23.4351 60.3075L25.2595 59.79L26.997 59.5312ZM33.5995 68.1563L32.6438 68.415L31.6013 68.8462L30.472 69.6225L29.5163 70.5713L28.9082 71.4338L28.3001 72.6412L27.8657 74.28V74.7975L27.2576 74.5388H25.9545L25.1726 74.97L24.6513 75.5738L24.4776 76.0913V76.9537L24.8251 77.73L25.2595 78.2475L25.8676 78.5925L27.4313 78.9375L27.7788 79.6275L27.9526 81.0938L27.8657 83.0775L27.6051 84.975L27.2576 86.355L26.9101 87.1313L26.8232 87.39L27.4313 88.08L28.4738 89.2875L29.6032 90.9263L29.9507 91.185L31.2538 90.0638L32.4701 89.0288L32.557 88.8563L32.8176 86.6138L33.3388 84.0263L31.6882 83.595L31.167 83.4225V82.9913L32.8176 83.0775H35.5107L36.727 82.905L37.8563 82.56L38.7251 82.0425L39.3332 81.525L39.9413 80.6625L40.2888 79.7137L40.4626 79.0238L40.5495 78.2475V75.9187L40.2888 74.28L39.9413 72.9863L39.3332 71.6063L38.6382 70.3125L37.7695 68.9325L37.5088 68.6738L36.2057 68.2425L35.7713 68.1563H33.5995ZM25.5201 87.1313L23.6088 87.2175L21.9582 87.4762L20.742 87.8213L20.2207 88.08V88.425L21.437 90.15L22.4795 91.6163L23.6957 93.3412L24.8251 95.0663L25.0857 95.4975L25.3463 95.4113L26.0413 94.3762L26.4757 93.8588L27.1707 93.255L28.2132 92.4788L29.082 91.875L28.9082 91.4438L28.0395 90.2363L26.9101 88.6838L25.9545 87.2175L25.5201 87.1313ZM19.1782 89.0288L16.9195 89.7188L15.2688 90.4088L13.6182 91.2712L12.2282 92.22L10.8382 93.3412L9.27447 94.8938L8.1451 96.36L7.27635 97.6537L6.23385 99.6375L5.53885 101.449L5.0176 103.26L4.84385 104.381V106.883L5.10447 108.349L5.62572 109.901L6.49447 111.54L7.53697 112.92L8.31885 113.783L8.92697 114.473L9.96947 115.421L11.0988 116.284L12.2282 117.06L13.3576 117.75L15.3557 118.785L17.0932 119.475L19.2651 120.165L21.2632 120.596L22.9138 120.855L24.6513 121.028L26.302 121.114H28.2132L28.7345 121.028L28.6476 120.079V118.095L28.8213 117.75H29.082L29.1688 119.216L29.4295 120.51L29.6901 120.941H30.6457L32.9913 120.596L33.1651 120.51L33.0782 120.079L32.557 118.526L32.0357 116.284L31.9488 115.68V113.179L31.4276 113.006L29.5163 112.748L27.6051 112.316L26.5626 111.971L25.0857 111.281L23.7826 110.333L22.6532 109.384L21.3501 108.349L20.4813 107.745V107.486L20.8288 107.4L21.8713 107.745L22.827 108.263L23.8695 109.039L24.7382 109.729L25.4332 110.333L25.6938 110.246L26.1282 108.004L27.5182 101.363L28.387 97.3088V96.6187L27.3445 94.635L26.997 94.5487L26.0413 95.8425L25.4332 96.6187L25.1726 96.7912L24.5645 96.1013L23.3482 94.4625L21.0895 91.3575L19.8732 89.6325L19.4388 89.0288H19.1782ZM33.5995 89.115L32.9045 89.7188L32.0357 90.5813L31.0801 91.3575L30.2982 92.1337L30.9063 93.3412L31.7751 94.5487L33.3388 96.2738L33.7732 96.7912H33.947L34.8157 95.325L35.7713 93.945L36.9007 92.4788L37.6826 91.6163L37.7695 91.3575L37.0745 90.6675L35.9451 89.8913L34.8157 89.3738L33.8601 89.115H33.5995Z" fill="#333333"/>
<path d="M41.505 25.5508H42.7213L44.0244 25.7233L45.4144 26.1545L46.8044 26.8445L47.8469 27.6208L48.5419 28.2245L48.9763 28.1383L49.2369 28.052H51.0613L51.93 28.3108L53.1463 29.0008L53.8413 29.6908L54.3625 30.5533L54.6231 31.4158V32.6233L54.2756 33.7445L53.6675 34.6933L52.9725 35.297L52.3644 35.4695H51.7563L51.235 35.2108L50.54 34.4345L50.4531 34.0033L49.4106 34.4345H48.1075L47.1519 34.0895L46.1963 33.3995L45.5013 32.7095L45.3275 31.7608L45.0669 31.2433L44.7194 30.8983L44.5456 30.9845L44.6325 31.6745L44.7194 32.1058V32.7095L44.4588 33.3133L43.7638 33.572L42.9819 33.6583L42.8081 34.6933L42.3738 35.5558L41.7656 36.2458L40.81 36.8495L39.9413 37.1083H38.725L37.8563 36.8495L37.335 36.5045L36.7269 35.8145L36.0319 34.952L35.7713 34.7795H35.5106L35.5975 35.297L36.4663 36.9358L36.9006 37.8845L37.0744 38.747V39.5233L36.8138 40.817L36.2925 41.852L35.5106 42.7145L34.9025 43.232L35.0763 43.6633L34.0338 45.9058L33.0781 47.8033L31.9488 49.787L31.08 51.167L31.1669 51.6845L31.9488 52.2883L33.0781 52.8058L34.1206 53.0645L34.7288 53.1508H35.4238L36.2925 52.892L36.9006 52.3745L37.4219 50.9945L38.725 48.6658L40.0281 46.682L40.115 46.4233L39.3331 45.7333L38.725 44.7845L38.8119 44.267L38.8988 44.1808L39.5069 44.267L40.3756 45.1295L41.2444 45.647L42.2 45.992L43.3294 46.1645H44.1981L45.5881 45.9058L46.7175 45.4745L47.76 44.8708L48.6288 44.0083L49.2369 43.0595L49.7581 41.7658L50.2794 39.6095L50.9744 37.1083L51.3219 36.5045L51.8431 36.677L51.7563 37.4533L51.235 39.2645L50.6269 41.852L50.1925 43.232L49.4975 44.612L48.8025 45.3883L47.8469 46.0783L46.8044 46.5958L45.2406 47.1133L44.1113 47.2858H42.7213L40.8969 47.027L39.6806 49.2695L38.8119 50.9083L38.5513 51.4258L39.0725 51.5983L41.5919 52.1158L44.4588 53.0645L46.2831 54.0133L47.3256 54.7895L48.1075 55.5658L48.1944 55.997L48.1075 56.1695L47.5863 56.0833L45.8488 55.0483L44.285 54.1858L43.9375 54.272L43.5031 54.7033L43.0688 54.8758L42.1131 54.962L42.0263 55.307L41.5919 55.9108L40.9838 56.2558L40.0281 56.5145H38.9856L37.6825 56.2558L37.5088 56.7733L36.9006 57.5495L36.2056 57.8945L35.6844 57.9808H34.9894L34.2075 57.6358L33.0781 56.7733L32.2094 56.342L31.2538 56.4283H29.9506L28.8213 56.0833L28.1263 55.5658L27.605 54.962L27.1706 54.0133L27.0838 53.4958L26.1281 53.3233L25.6069 52.9783L25.1725 52.3745L25.0856 52.1158V51.3395L25.3463 50.6495L25.4331 50.477L22.3056 50.5633L20.1338 50.822L18.3094 51.2533L16.9194 51.7708L15.7031 52.3745L14.5738 53.1508L13.705 53.927L13.01 54.7895L12.315 55.997L11.8806 57.2908L11.62 58.5845V60.827L11.7938 62.2933V63.1558L11.5331 63.7595L11.1856 63.8458L10.7513 63.4145L10.4038 62.552L10.3169 61.9483V58.9295L10.5775 57.1183L11.0119 55.7383L11.7069 54.4445L12.4888 53.4095L13.2706 52.547L14.1394 51.857L15.2688 51.167L16.5719 50.5633L18.0488 50.0458L19.7863 49.6145L20.9156 49.442L21.9581 49.3558H26.4756L28.3 49.6145L29.69 50.0458L30.2981 50.3045L30.385 49.8733L31.4275 47.717L32.2963 46.2508L32.9913 45.2158L33.9469 44.0083L34.2944 43.577L33.5994 43.8358L32.2963 44.0083L31.4275 43.922L30.2981 43.577L29.3425 42.887L28.6475 42.1108L27.6919 40.472L27.0838 38.8333L26.7363 37.1083V35.1245L27.0838 33.6583L27.5181 32.6233L28.1263 31.5883L28.9081 30.7258L29.5163 30.122L30.4719 29.5183L31.5144 29.087L32.7306 28.8283H34.2944L34.8156 29.0008L35.25 30.0358L35.7713 30.7258L36.3794 30.9845V30.5533L35.8581 29.6908L35.6844 29.1733V27.9658L36.2925 27.2758L37.6825 26.5858L38.9856 26.0683L40.6363 25.637L41.505 25.5508ZM26.5625 50.5633L26.1281 50.9083L25.8675 51.4258L26.3019 51.9433L27.3444 52.4608L27.7788 52.6333L28.1263 54.0133L28.6475 54.7895L29.4294 55.307L30.2981 55.5658H30.9931L32.0356 55.307H32.9913L33.4256 55.7383L33.86 56.342L34.555 56.687L35.3369 56.6008L36.2056 56.1695L36.9875 55.4795L37.1613 55.2208L37.7694 55.307L38.8119 55.5658H40.0281L40.6363 55.307L41.0706 54.8758L41.5919 53.927L42.7213 53.6683L42.895 53.582V53.4095L41.5919 52.892L39.2463 52.2883L38.8119 52.202H38.1169L37.7694 52.7195L37.1613 53.4095L36.2925 53.8408L35.4238 54.0133H34.555L32.9913 53.6683L31.6013 53.0645L30.8194 52.4608L30.2981 51.857L29.8638 51.0808L28.8213 50.7358L27.9525 50.5633H26.5625Z" fill="#333333"/>
<path d="M71.0426 51.6836H71.3901L71.477 51.8561L71.6507 54.0986L71.9113 55.3923L72.4326 57.1173L73.3013 58.7561L74.0832 59.7048L74.952 60.4811L75.9945 60.9986L77.2976 61.3436L77.4713 61.5161L77.3845 61.9473L77.1238 62.2061L75.9945 62.1198L75.2126 61.9473L74.1701 63.5861L73.3882 64.8798L72.2588 66.8636L72.0851 67.2086L74.257 67.6398L75.5601 67.8123L77.732 67.8986L79.817 67.6398L81.9888 67.1223L83.8132 66.5186V65.3111L83.5526 61.8611L83.3788 59.9636V59.2736L83.4657 59.0148L85.7245 58.8423L87.0276 58.4973L88.7651 57.7211L89.1126 57.8936L89.1995 58.4973L88.7651 58.9286L87.5488 59.5323L85.8982 59.9636L84.5082 60.0498L84.8557 63.0686L85.1163 66.3461V70.0548L84.8557 73.3323L84.1607 79.5423L83.8132 82.3023L83.292 84.4586L82.6838 85.9248L81.8151 87.3911L80.4251 89.2023L79.7301 89.9786L79.2957 90.0648L79.122 89.8061L79.6432 88.9436L80.3382 87.9948L81.0332 86.8736L81.9888 85.0623L82.4232 83.7686L82.7707 82.3023L83.1182 79.6286L83.6395 74.1086L83.8132 71.5211L83.9001 67.6398L82.5101 68.1573L81.0332 68.5886L79.3826 68.8473H76.4288L74.1701 68.5023L72.2588 67.9848L71.6507 67.7261L71.477 68.1573L70.782 69.5373L70.1738 70.9173L70.9557 71.0036L72.6932 71.2623L74.952 71.4348L76.6026 71.5211L76.6895 71.9523L76.6026 72.2111L75.9076 72.3836H74.6045L72.9538 72.2111L70.9557 71.7798L69.9132 71.5211L69.3051 73.0736L68.6101 75.3161L68.2626 76.8686L68.002 78.6798V82.2161L68.3495 84.4586L68.9576 86.5286L69.6526 88.0811L70.1738 89.0298L70.8688 90.0648L71.5638 90.9273L72.5195 91.9623L73.8226 92.9973L75.0388 93.6873L76.1682 94.1186L76.9501 94.2911L77.9926 94.3773L79.2957 94.2048L80.5988 93.7736L81.902 93.1698L83.9001 92.3073L84.5082 92.1348L85.2032 92.2211L85.2901 92.7386L84.682 93.2561L82.7707 94.2048L81.0332 94.8948L79.9038 95.2398L78.427 95.4986H77.2976L76.0813 95.2398L74.6913 94.7223L73.4751 94.0323L72.4326 93.2561L71.3032 92.2211L70.5213 91.3586L69.4788 89.8923L68.6101 88.3398L67.8282 86.4423L67.307 84.5448L66.9595 82.4748V78.5936L67.307 76.4373L67.8282 74.3673L68.6101 72.0386L69.392 70.2273L70.1738 68.5886L71.2163 66.6911L72.4326 64.7073L73.7357 62.8098L74.4307 61.8611L74.5176 61.6023L73.3882 60.5673L72.7801 59.8773L72.0851 58.6698L71.6507 57.7211L71.2163 56.4273L70.8688 54.7886L70.782 53.8398V52.6323L70.8688 51.8561L71.0426 51.6836Z" fill="#333333"/>
<path d="M60.27 93.8594H61.3125L62.4419 94.0319L63.5713 94.4631L64.44 95.0669L65.2219 95.9294L65.7432 97.0506L65.9169 97.7406V98.9481L65.6563 100.156L65.2219 101.191L64.44 102.312L63.3107 103.433L62.1813 104.296L61.3994 104.899L61.0519 105.244H60.8782L60.7044 105.589L60.1832 106.452L59.575 108.263L59.0538 110.161L58.7063 110.678L57.9244 110.764L57.4032 110.506L57.1425 110.074V108.522L57.3163 106.538L57.6638 105.072L58.3588 103.692L58.9669 102.916L60.0094 101.967L61.0519 101.191L62.0944 100.242L62.6157 99.4656L62.7894 98.6894L62.7025 97.9131L62.355 97.1369L61.8338 96.5331L60.7913 96.0156L60.4438 95.9294H59.4013L58.5325 96.2744L57.8375 96.7919L57.3163 97.7406L56.9688 99.0344L56.7082 99.3794L56.0132 99.4656L55.4919 99.1206L55.405 98.9481V97.3956L55.7525 96.4469L56.2738 95.6706L56.9688 94.9806L58.3588 94.2906L59.1407 94.0319L60.27 93.8594Z" fill="#C0879C"/>
<path d="M61.4862 89.9766H64.2662L65.9169 90.2353L67.5675 90.8391L68.9575 91.6153L69.8262 92.3053L70.8687 93.3403L71.8244 94.7203L72.6062 96.1866L73.1275 97.6528L73.6487 99.8091L73.8225 101.793V103.345L73.6487 105.157L73.2144 106.968L72.6931 108.348L71.9981 109.728L71.1294 111.022L70.4344 111.884L69.3919 113.005L68.6969 113.609L67.3937 114.644L65.6562 115.679L64.1794 116.369L62.0944 117.059L60.0094 117.49L59.2275 117.577H56.6212L54.8837 117.318L53.4937 116.973L52.1906 116.542L50.8006 115.938L49.5844 115.248L48.3681 114.385L47.3256 113.437L46.6306 112.747L45.675 111.539L44.98 110.332L44.285 108.52L44.0244 107.227L43.9375 106.019V104.984L44.1981 103.259L44.7194 101.362L45.5012 99.6366L46.1094 98.6878L46.8044 97.8253L46.7175 97.3941L45.675 94.8928L44.98 93.6853L44.5456 93.1678V92.9091L45.3275 92.9953L50.8875 94.3753L51.3219 94.2028L52.1906 93.5128L53.4069 92.7366L54.7969 91.9603L56.5344 91.1841L58.3587 90.5803L60.27 90.1491L61.4862 89.9766ZM62.355 90.7528L60.27 91.0116L58.0981 91.6153L56.3606 92.3053L54.3625 93.2541L52.1906 94.5478L51.235 95.1516L50.2794 94.9791L46.5437 93.9441L45.7619 93.8578L45.9356 94.2891L46.7175 95.6691L47.4125 97.2216L47.76 97.1353L48.3681 96.7903H48.8025L48.6287 97.1353L47.3256 98.1703L46.5437 99.2053L45.7619 100.672L45.1537 102.397L44.8062 103.949L44.7194 104.639V107.227L45.0669 108.779L45.7619 110.418L46.5437 111.625L47.2387 112.488L48.5419 113.782L49.845 114.73L50.9744 115.42L53.0594 116.283L54.6231 116.714L56.1869 116.973H59.4012L60.965 116.714L62.7894 116.197L64.1794 115.679L66.1775 114.644L67.3937 113.782L68.2625 113.092L69.1312 112.315L69.8262 111.625L70.8687 110.245L71.7375 108.693L72.4325 106.968L72.8669 105.329L73.1275 103.69V100.758L72.78 98.8603L72.085 96.7903L71.39 95.4966L70.5212 94.2891L69.4787 93.1678L68.3494 92.3053L67.1331 91.6153L65.7431 91.0978L64.44 90.8391L63.5712 90.7528H62.355Z" fill="#333333"/>
<path d="M47.76 49.5273L48.2813 49.6136L49.7582 50.6486L51.5825 51.6836L53.32 52.4598L53.6675 52.5461L54.4494 51.6836L55.3182 50.9936L56.5344 50.3036L57.6638 49.8723L58.7932 49.6136L60.6175 49.5273L62.0075 49.6998L63.3975 50.1311L64.7875 50.8211L65.83 51.5973L66.8725 52.6323L67.6544 53.6673L68.5232 55.1336L69.0444 56.4273L69.3919 57.6348L69.6525 58.9286L69.7394 59.7048V61.8611L69.4788 63.7586L68.9575 65.6561L68.3494 67.2948L67.4807 68.9336L66.8725 69.8823L66.0907 70.9173L65.135 71.9523L64.5269 72.6423L63.5713 73.4186L62.0944 74.4536L60.4438 75.3161L58.7063 75.9198L57.5769 76.1786L56.1 76.3511H54.71L52.7988 76.0923L51.0613 75.5748L49.6713 74.9711L48.3682 74.1948L47.2388 73.3323L46.2832 72.4698L45.5013 71.5211L44.7194 70.3136L44.0244 68.8473L43.59 67.2086L43.5032 66.3461V64.2761L43.7638 62.8098L44.285 61.2573L45.1538 59.7048L45.9357 58.6698L46.4569 58.0661L47.1519 57.4623L48.1075 56.7723L48.9763 56.2548H49.15L48.2813 53.3223L47.4994 50.4761V49.8723L47.76 49.5273ZM59.1407 50.0448L57.5769 50.3898L56.1869 51.0798L55.0575 51.9423L54.2757 52.7186L53.5807 53.7536L52.8857 54.8748L52.625 54.9611L52.5382 54.6161L53.2332 53.2361L52.1907 52.8048L50.7138 52.0286L49.0632 50.9936L48.455 50.5623L48.2813 50.6486L49.4975 54.5298L49.845 55.9961L49.7582 56.4273L48.5419 57.1173L47.76 57.7211L46.7175 58.6698L45.9357 59.7048L45.0669 61.3436L44.5457 62.8098L44.285 64.3623V66.2598L44.6325 68.0711L45.1538 69.3648L45.9357 70.7448L46.9782 71.9523L47.8469 72.8148L49.15 73.7636L50.4532 74.4536L51.8432 74.9711L53.32 75.3161L54.7969 75.4886H56.1L57.5769 75.3161L59.0538 74.9711L60.4438 74.4536L62.0075 73.5911L63.3975 72.5561L64.5269 71.5211L65.135 70.9173L66.0907 69.7098L66.9594 68.3298L67.6544 66.9498L68.2625 65.2248L68.61 63.8448L68.8707 61.5161V60.5673L68.61 58.3248L68.1757 56.6861L67.6544 55.3923L66.9594 54.1848L66.1775 53.1498L64.7875 51.7698L63.4844 50.9073L62.5288 50.4761L61.3125 50.1311L60.7913 50.0448H59.1407Z" fill="#333333"/>
<path d="M70.4344 12.957H72.2588L73.7357 13.1295L75.1257 13.3883L77.2107 14.0783L78.6875 14.7683L79.9907 15.6308L80.9463 16.407L81.9019 17.3558L82.7707 18.5633L83.5525 20.0295L84.0738 21.582L84.4213 23.4795V26.1533L83.9869 28.2233L83.2919 30.0345L82.3363 31.7595L81.4675 32.8808L80.6857 33.7433L79.9038 34.5195L78.9482 35.2958L77.4713 36.2445L76.0813 36.9345L74.7782 37.452L73.3013 37.8833L71.3032 38.2283L70.1738 38.3145H68.5232L66.525 38.0558L65.2219 37.7108L64.0057 37.1933L62.7894 36.3308L62.2682 35.727L62.355 35.2095L62.4419 35.1233L63.05 35.2095L63.6582 35.727L64.7875 36.417L66.4382 37.0208L67.7413 37.2795L68.6969 37.3658H70L71.8244 37.1933L73.3882 36.8483L74.7782 36.417L76.6025 35.6408L77.9057 34.8645L78.9482 34.0883L79.8169 33.312L80.0775 33.0533H80.2513L80.425 32.7083L81.2069 31.8458L82.0757 30.552L82.7707 28.9995L83.205 27.7058L83.4657 26.4983L83.5525 25.6358V23.5658L83.3788 22.272L83.0313 20.892L82.4232 19.512L81.815 18.477L81.12 17.6145L80.9463 17.2695L80.5988 17.097L79.9907 16.4933L78.6007 15.5445L77.2975 14.8545L75.56 14.2508L73.7357 13.8195L71.8244 13.647H70.8688L68.8707 13.8195L67.22 14.2508L65.83 14.8545L64.5269 15.5445L63.4844 16.3208L62.355 17.3558L61.7469 17.9595L61.0519 18.9083L60.3569 20.0295L59.6619 21.3233L59.1407 22.7033L58.7063 24.1695L58.4457 25.5495L58.3588 26.2395V29.7758L58.6194 31.5008L59.2275 33.5708L60.0963 35.6408L59.8357 36.5895L59.2275 37.8833L58.7063 38.9183L62.2682 37.3658L62.8763 37.107L63.3107 37.1933L63.3975 37.2795V37.7108L62.9632 37.9695L61.0519 38.832L58.7063 39.7808L58.0982 39.867L57.8375 39.3495L57.9244 38.832L58.7063 37.0208L59.3144 35.8133L59.4013 35.382L58.7063 33.9158L58.0113 31.8458L57.6638 30.0345L57.5769 28.7408V27.1883L57.6638 25.8945L58.185 23.3933L58.88 21.4958L59.9225 19.512L60.8782 18.132L61.9207 16.9245L62.7894 16.062L64.3532 14.9408L65.5694 14.2508L66.7857 13.7333L68.5232 13.2158L70.4344 12.957Z" fill="#333333"/>
<path d="M59.3143 52.8906H60.0962L60.7912 53.1494L61.2256 53.5806L61.4862 53.9256L61.66 54.4431V55.6506L61.3125 57.1169L60.7043 58.9281L59.1406 63.1544L57.7506 66.6906L57.3162 67.3806L56.795 67.2944L56.6212 67.1219L56.4475 64.1894L56.3606 61.7744V59.2731L56.4475 57.5481L56.7081 55.9094L57.1425 54.7881L57.7506 53.8394L58.4456 53.2356L59.3143 52.8906Z" fill="#C0879C"/>
<path d="M70.8686 19.5117L71.1293 19.6842L71.8243 21.8405L74.4305 21.9267L73.9961 22.358L72.4324 23.4792L72.6061 24.2555L73.1274 25.808V25.9805L72.6061 25.808L71.2161 24.773L70.7818 24.6867L69.1311 25.8942L68.7836 25.9805L68.8705 25.5492L69.4786 23.738L69.3918 23.4792L68.2624 22.6167L67.5674 22.0992V21.9267H70.0868L70.3474 20.8917L70.7818 19.598L70.8686 19.5117Z" fill="#C0879C"/>
<path d="M62.7895 19.5117H62.9632L63.7451 21.8405L66.2645 21.9267L66.1776 22.1855L64.7007 23.2205L64.3532 23.4792L64.4401 23.9967L65.0482 25.8942L64.527 25.808L63.137 24.773L62.7026 24.6867L61.052 25.8942L60.7045 25.9805L60.7914 25.5492L61.3126 23.9967V23.4792L60.0095 22.5305L59.4882 22.1855L59.4014 21.9267H62.0076L62.0945 21.4955L62.7026 19.598L62.7895 19.5117Z" fill="#C0879C"/>
<path d="M78.9482 19.5117L79.2088 19.6842L79.8169 21.668V21.8405L82.4232 21.9267L82.3363 22.1855L80.7726 23.3067L80.5119 23.4792L80.6857 24.2555L81.1201 25.5492V25.9805L80.6857 25.808L79.5563 24.9455L79.2088 24.6867L78.7744 24.773L77.8188 25.463L77.1238 25.9805H76.8632L77.1238 25.0317L77.5582 23.8242L77.4713 23.4792L76.0813 22.4442L75.5601 22.013V21.9267L78.1663 21.8405L78.8613 19.598L78.9482 19.5117Z" fill="#C0879C"/>
<path d="M66.9594 27.1875H67.1332L67.915 29.5162L70.2607 29.6025L70.4344 29.775L69.3919 30.465L68.61 31.0687H68.4363L69.1313 33.3975L69.2182 33.6562L68.6969 33.4837L67.1332 32.2762L66.6988 32.4487L65.135 33.57L64.8744 33.6562L64.9613 33.1387L65.4825 31.5862V31.155L64.0925 30.12L63.5713 29.6887V29.6025L66.0907 29.5162L66.8725 27.2737L66.9594 27.1875Z" fill="#C0879C"/>
<path d="M74.2568 27.6211L74.5174 27.7073L75.2124 29.9498L77.7318 30.0361L77.6449 30.2948L75.8206 31.5023L75.9943 32.2786L76.5156 33.9173V34.0898L76.0812 33.9173L74.4306 32.7098L73.9962 32.8823L72.9537 33.6586L72.2587 34.0898L72.1718 33.8311L72.7799 32.0198V31.5023L71.8243 30.8123L70.9556 30.2086V30.0361L73.3881 29.9498L73.7356 29.0873L74.1699 27.7073L74.2568 27.6211Z" fill="#C0879C"/>
<path d="M107.53 121.199H108.572L108.833 121.717L109.789 125.339L110.136 126.633V126.978L109.528 127.064L109.267 126.892L108.659 124.908L108.051 122.665L107.877 122.148L105.619 122.234L102.404 122.579L100.667 122.838L100.406 126.202L100.319 126.547L99.9718 126.633L99.6243 126.46V125.253L99.798 122.665L99.9718 122.062L101.188 121.889L106.748 121.285L107.53 121.199Z" fill="#333333"/>
<path d="M72.867 48.8359L73.1276 48.9222L73.2145 49.0947L73.3014 50.5609L73.562 51.9409L73.9964 53.0622L74.5176 54.0109L75.2995 54.9597L75.9076 55.5634L77.3845 56.5984L77.4714 56.8572L77.2107 57.2884L76.9501 57.3747L75.9076 56.8572L74.952 56.0809L73.9964 55.0459L73.3014 53.8384L72.7801 52.6309L72.5195 51.5959L72.4326 50.8197V49.7847L72.5195 49.0947L72.867 48.8359Z" fill="#333333"/>
<path d="M74.6044 47.6289L75.0387 47.7152L75.1256 47.8877L75.2994 49.0952L75.7337 50.3889L76.5156 51.5964L77.5581 52.7177L78.34 53.4939L78.9481 54.3564V54.7014L78.34 54.7877L77.2975 54.0977L76.3419 53.2352L75.4731 52.0277L74.865 50.7339L74.5175 49.6127L74.3438 48.4052L74.4306 47.8014L74.6044 47.6289Z" fill="#333333"/>
<path d="M37.8563 78.3359H38.3775L38.4644 78.5947L38.2038 79.6297L37.7694 80.4922L37.2481 81.0959L36.7269 81.3547H35.5975L35.0763 81.0959L34.4681 80.4059L34.2075 79.7159L34.2944 78.9397L34.555 78.6809H36.7269L37.335 78.5084L37.8563 78.3359ZM35.1631 79.1984L34.9894 79.2847L35.25 80.1472L35.6844 80.4922L35.8581 80.5784H36.4663L36.9875 80.2334L37.335 79.7159V79.2847L37.1613 79.1984H35.1631Z" fill="#333333"/>
<path d="M77.9057 47.1992L78.3401 47.2855L78.8613 49.3555L79.3826 50.6492L80.1644 51.943L80.7726 52.8055L80.8594 53.323L80.5119 53.5817L80.0776 53.4092L79.3826 52.633L78.6876 51.5117L78.2532 50.563L77.8188 49.183L77.7319 48.7517V47.2855L77.9057 47.1992Z" fill="#333333"/>
<path d="M47.9338 38.4883L48.2813 38.6608L48.3681 39.1783V40.5583L48.1944 41.507L47.8469 42.2833L47.4125 42.7145L46.7175 42.8008L46.0225 42.542L45.1538 41.7658L45.0669 41.3345L45.3275 40.9895L45.8488 41.0758L46.6306 41.6795L47.065 41.7658L47.2388 40.9895L47.5863 39.1783L47.8469 38.5745L47.9338 38.4883Z" fill="#333333"/>
<path d="M103.186 42.1953L103.447 42.2816L103.968 43.3166L104.489 44.7828L104.663 45.4728V47.0253L104.142 47.8016L103.534 48.0603L102.578 48.1466L102.317 47.8878V47.4566L103.447 47.1116L103.707 46.8528L103.794 46.0766L103.36 43.9203L103.099 42.8853V42.2816L103.186 42.1953Z" fill="#333333"/>
<path d="M121.082 103.176L121.43 103.348L122.299 104.038L122.994 104.383L123.602 104.556H124.818L125.774 104.211L126.99 103.521L127.337 103.607L127.251 104.125L126.469 104.901L125.774 105.246L125.079 105.418H123.862L122.907 105.16L122.038 104.728L121.169 103.952L120.996 103.78V103.262L121.082 103.176Z" fill="#333333"/>
<path d="M42.1132 41.1602L42.4607 41.2464L42.8951 42.8852L43.2426 43.3164L43.8507 43.6614L43.9376 44.1789L43.5032 44.5239L43.1557 44.6102H42.287L41.592 44.3514L41.1576 43.9202L40.9838 43.5752L40.897 42.7989L41.3313 41.9364L42.1132 41.1602ZM41.8526 42.1952L41.592 42.5402L41.5051 43.2302L41.8526 43.8339L42.2001 44.0064H42.8082L42.6345 43.5752L42.287 42.9714L42.0263 42.1952H41.8526Z" fill="#333333"/>
<path d="M56.3607 69.8828H56.9688L57.5769 70.2278L57.9244 70.7453V71.3491L57.5769 71.8666L57.3163 72.1253L56.6213 72.2978L55.9263 72.0391L55.4919 71.5216L55.405 70.7453L55.7525 70.2278L56.1 69.9691L56.3607 69.8828Z" fill="#C0879C"/>
<path d="M120.301 100.07L120.735 100.157L121.43 101.019L121.951 101.45L122.82 101.795H123.862L124.731 101.537L125.687 101.019H125.947L126.034 101.364L125.426 102.054L124.644 102.485L123.862 102.658L122.733 102.572L121.691 102.14L120.822 101.364L120.301 100.588V100.07Z" fill="#333333"/>
<path d="M57.8375 112.664H58.4456L59.1406 113.095L59.3144 113.44V114.303L58.7931 114.907L58.6194 114.993H57.7506L57.2294 114.648L56.9688 114.217V113.527L57.3162 113.009L57.8375 112.664Z" fill="#C0879C"/>
<path d="M36.9874 73.6758L37.4218 73.762L38.0299 74.2795L38.8118 75.2283L39.0724 75.832V76.6083L38.7249 77.1258L38.2906 77.4708L37.5087 77.6433L36.8137 77.557L36.7268 77.4708V77.0395L37.0743 76.7808L37.8562 76.6083L38.2037 76.522V76.0045L37.6824 75.0558L36.9006 74.107L36.8137 73.8483L36.9874 73.6758Z" fill="#333333"/>
<path d="M99.6244 42.5391L100.059 42.6253L100.233 43.0566L100.146 43.4878L99.885 43.6603L97.8 43.9191H96.7575L96.2363 43.6603L96.1494 43.4016L96.41 43.1428L98.0607 42.7116L99.6244 42.5391Z" fill="#333333"/>
<path d="M99.1899 50.6484L99.6243 50.7347L100.58 51.2522H101.796L102.231 51.1659H102.839L103.099 51.5972V52.0284L102.665 52.2872L102.144 52.3734H101.014L100.232 52.1147L99.7112 51.7697L99.103 51.0797L99.1899 50.6484Z" fill="#333333"/>
<path d="M98.0607 40.2969H99.1032L99.7113 40.5556L99.7982 40.9869L99.5375 41.3319H97.7132L96.8444 41.5044L95.9757 42.0219H95.6282L95.715 41.5906L96.4969 40.9006L97.3657 40.4694L98.0607 40.2969Z" fill="#333333"/>
<path d="M40.2888 112.488L40.5495 112.575L40.4626 113.092L39.8545 113.61L38.5513 114.127L37.1613 114.472H36.6401L36.5532 114.127L37.3351 113.782L39.0726 113.092L40.2888 112.488Z" fill="#333333"/>
<path d="M40.9838 114.73L41.2444 114.903L41.3313 115.248L40.8969 115.679H40.6363L39.0725 116.197L37.9432 116.455L37.5088 116.369V116.024L40.6363 114.817L40.9838 114.73Z" fill="#333333"/>
<path d="M121.517 106.02L121.951 106.278L122.82 106.968L123.862 107.4L124.384 107.658V107.917L124.123 108.176H123.428L122.386 107.745L121.951 107.313L121.43 106.71L121.343 106.106L121.517 106.02Z" fill="#333333"/>
<path d="M44.4587 34.2617H45.5012L46.3699 34.693L46.8043 35.2105L46.6305 35.728L46.1093 35.6417L45.1537 35.383H44.6324L44.2849 35.1242V34.4342L44.4587 34.2617Z" fill="#333333"/>
<path d="M45.0669 35.8125H45.675L46.0225 36.1575V36.8475L45.675 37.4512L45.1537 37.7962L44.7194 37.71L44.4587 37.2787V36.5887L44.8931 35.8987L45.0669 35.8125Z" fill="#333333"/>
<path d="M37.9431 71.8672L38.5512 71.9534L38.9856 72.3847V73.0747L38.6381 73.5059L38.1169 73.5922L37.6825 73.2472L37.4219 72.4709L37.7694 71.9534L37.9431 71.8672Z" fill="#333333"/>
<path d="M32.9044 71.5195H33.7731L34.1206 71.7783V72.2095L32.47 72.5545L31.775 72.8995L31.4275 72.8133L31.5144 72.382L32.1225 71.8645L32.9044 71.5195Z" fill="#333333"/>
<path d="M33.4256 73.0742H33.86L34.2943 73.5917L34.4681 74.023L34.3812 74.6267L33.9468 74.9717L33.5125 74.8855L33.165 74.4542L32.9912 73.7642L33.2518 73.2467L33.4256 73.0742Z" fill="#333333"/>
<path d="M49.4975 35.2969H50.1056L50.8006 35.6419L51.0612 35.9869L50.9744 36.4181L50.7137 36.6769L50.2794 36.5906L49.6712 36.2456L48.9762 36.0731L48.8025 35.7281L49.0631 35.4694L49.4975 35.2969Z" fill="#333333"/>
<path d="M37.1614 70.3125H37.8564L38.2907 70.485L38.4645 70.9163L37.8564 71.0888L36.727 71.4338L36.2926 71.52L36.032 71.3475L36.1189 70.83L36.5532 70.485L37.1614 70.3125Z" fill="#333333"/>
<path d="M49.4976 36.5898L49.9319 36.6761L50.1926 37.0211V37.7973L49.7582 38.4011L49.3238 38.4873L48.9763 38.1423V37.2798L49.3238 36.7623L49.4976 36.5898Z" fill="#333333"/>
<path d="M31.1668 119.043L31.688 119.215L31.8618 119.56L31.7749 120.078L31.1668 120.337L30.8193 120.164L30.7324 119.992V119.302L31.1668 119.043Z" fill="#333333"/>
<path d="M47.3256 35.4688H47.9337L48.1943 35.7275L48.1074 36.4175L47.7599 36.59L47.2387 36.5037L47.0649 36.3312V35.7275L47.3256 35.4688Z" fill="#C0879C"/>
<path d="M71.6505 69.0195L72.3455 69.1058L72.4324 69.7095L72.2586 70.0545H71.5636L71.3899 69.882V69.3645L71.6505 69.0195Z" fill="#333333"/>
</svg>
