<svg width="140" height="140" viewBox="0 0 140 140" fill="none" xmlns="http://www.w3.org/2000/svg">
<g clip-path="url(#clip0_1564_1652)">
<path d="M58.6795 67.5486C58.0789 69.9349 58.0803 63.1239 53.8855 56.5838C53.5408 56.0462 53.6797 55.9188 54.2958 56.2583C55.3195 56.984 56.1436 57.953 56.6928 59.0765C58.3884 62.146 59.0405 66.1143 58.6795 67.5486Z" fill="#333333"/>
<path d="M60.6129 63.5889C60.2076 64.8776 59.492 61.6534 58.316 59.4505C57.8141 58.5111 56.8757 57.1573 57.8733 57.5444C58.5104 57.8561 59.0495 58.3349 59.4321 58.929C60.5798 60.5369 60.8949 62.7104 60.6129 63.5889Z" fill="#333333"/>
<path d="M39.8595 59.3351C41.388 60.1408 39.1355 59.6984 37.8735 59.6284C37.38 59.6011 36.1815 59.4982 36.1343 60.215C35.9806 62.455 42.6429 63.9817 44.4533 64.7118C46.3103 65.4608 42.9023 65.3859 39.7298 64.4185C37.7057 63.8011 35.0845 62.6727 34.89 60.5734C34.7701 59.2889 35.7402 58.2536 38.073 58.7324C38.6938 58.8501 39.295 59.053 39.8595 59.3351Z" fill="#333333"/>
<path d="M31.4913 54.726C32.6123 55.4631 28.6657 55.51 27.3072 55.5891C26.1242 55.6591 25.3564 55.9447 25.6152 55.3126C25.8076 55.0506 26.0528 54.8313 26.3352 54.6686C26.6177 54.5059 26.9311 54.4034 27.2557 54.3676C28.9801 54.0071 30.8878 54.3291 31.4913 54.726Z" fill="#333333"/>
<path d="M31.3434 58.9945C32.4714 59.5139 29.3496 60.09 27.4221 60.6234C26.7665 60.8047 26.3245 61.0056 26.0277 61.0798C25.3304 61.2527 25.6047 60.1194 27.1105 59.4341C28.7243 58.6984 30.6771 58.6879 31.3434 58.9945Z" fill="#333333"/>
<path d="M32.6066 62.4802C33.4618 63.1277 30.6263 63.4672 29.4567 63.6702C28.9491 63.7584 28.6037 63.8494 28.3569 63.8662C28.1109 63.8662 27.9706 63.7381 28.0749 63.442C28.3225 62.9795 28.7398 62.6294 29.2403 62.4641C30.5741 61.9307 32.1308 62.1204 32.6066 62.4802Z" fill="#333333"/>
<path d="M88.9198 83.0896C89.2169 83.1626 89.5038 83.2722 89.7735 83.4158C90.076 83.7749 87.6585 83.5327 86.9839 83.5292C82.0001 83.5862 77.1287 85.007 72.9057 87.6354C70.9787 88.8177 69.1314 90.1237 67.3757 91.5449C66.3513 92.3506 66.2836 92.1413 67.0937 91.1053C69.036 88.6315 72.9001 85.6894 77.1357 84.0507C80.8597 82.4896 84.9891 82.1528 88.9198 83.0896Z" fill="#333333"/>
<path d="M98.6173 67.221C98.109 67.431 98.0597 66.731 98.5031 65.6404C98.9466 64.5498 99.6974 63.4998 100.209 63.2786C100.721 63.0574 100.767 63.7686 100.324 64.8585C99.8814 65.9484 99.1263 67.0089 98.6173 67.221Z" fill="#333333"/>
<path d="M105.098 64.9253C104.688 64.8933 104.277 64.9606 103.9 65.1213C103.727 64.7838 103.535 64.4566 103.325 64.1413C102.817 63.5449 102.502 64.4857 102.652 65.2984C102.948 66.8867 103.699 66.9469 104.834 65.9501C105.016 65.7401 105.673 65.073 105.098 64.9253Z" fill="#333333"/>
<path d="M97.387 62.3678C96.866 62.5407 97.0408 62.4154 96.6975 61.9604C95.5526 60.6171 95.499 62.5085 96.0249 63.3289C96.2197 63.5759 96.5048 63.7365 96.8182 63.7758C97.1317 63.8152 97.448 63.73 97.6986 63.5389C98.1991 63.2204 99.3546 61.7168 97.387 62.3678Z" fill="#333333"/>
<path d="M96.1889 71.7172C95.8738 71.1061 97.3642 71.5569 98.6832 70.9024C98.9107 70.7786 99.1462 70.6698 99.3882 70.5769C100.903 70.0575 100.104 71.6969 98.8637 72.238C97.7089 72.7441 96.5062 72.3318 96.1889 71.7172Z" fill="#333333"/>
<path d="M72.2494 109.208C66.8343 113.998 61.0914 118.951 54.0195 120.531C57.5445 109.746 57.498 98.1783 57.4162 86.839C59.3259 93.0755 60.8872 99.412 62.0932 105.82C62.2243 97.5595 58.8403 89.6908 57.2364 81.5771C55.832 74.4742 55.2236 64.2073 50.8837 59.5173C50.0544 58.7572 49.147 58.0858 48.1765 57.5139C44.9302 55.2971 41.3966 53.5268 37.672 52.2513C34.5559 51.1894 31.0922 50.4915 28.0078 51.6808C32.6679 50.8016 37.3589 52.7098 41.6101 54.793C50.1533 58.979 52.6081 62.087 54.3262 70.9707C56.7619 83.5791 56.5117 96.5641 55.1306 109.338C54.802 112.368 53.5591 116.58 51.619 114.584C47.0499 109.884 44.8756 95.2537 44.005 88.778C43.2798 83.3698 42.6525 77.9446 42.1233 72.5023C41.8449 87.2625 44.9194 101.859 48.5889 116.165C49.0824 118.087 49.7401 120.216 51.509 121.182C53.3173 122.171 55.5634 121.511 57.4655 120.678C63.3021 118.107 68.4086 114.145 72.3312 109.142C72.2987 109.175 72.2656 109.191 72.2494 109.208Z" fill="#333333"/>
<path d="M122.606 78.2067C114.058 77.7384 115.663 68.9198 116.651 62.8109C117.599 56.9449 110.891 49.1721 105.395 49.7447C97.9117 50.5238 93.6789 54.6972 92.1857 59.6336C92.1857 59.6336 91.1169 62.6289 92.5466 64.5539C92.8991 65.0292 91.6703 65.8748 91.9065 69.9439C92.094 73.1716 93.2989 75.7329 96.5341 76.1998C95.9151 77.2931 95.3564 78.419 94.8604 79.5724C93.3419 82.5523 92.8519 82.749 93.0225 83.5477C93.1883 84.4724 93.4467 85.3782 93.7938 86.2518C94.632 88.174 96.5151 89.5054 98.6343 88.6633C99.947 88.2022 101.067 87.3193 101.817 86.1545C102.491 84.8679 102.177 83.3356 101.982 81.902C101.767 80.3221 101.7 78.6925 101.046 77.2428C100.529 80.2948 101.693 83.8928 100.685 85.633C100.068 86.6984 98.0372 87.866 96.8126 87.5552C95.1248 87.1275 94.0448 83.7052 94.2697 83.2852C95.4803 81.0335 96.5116 78.6912 97.354 76.2796C98.0177 76.304 98.68 76.2047 99.3069 75.987C100.002 75.7238 100.259 75.3836 100.242 75.3185C100.225 75.2212 99.9456 75.3444 99.2907 75.4655C97.3667 75.8204 95.0741 75.1855 94.0236 73.4453C92.3711 70.7027 93.2953 65.4219 94.5975 62.4973C95.0012 61.6089 95.4844 60.7583 96.0413 59.9556C98.6999 59.6294 105.725 57.948 106.248 58.3911C106.741 58.8111 105.684 61.7658 106.773 63.9792C108.734 67.9748 108.353 70.7965 105.444 72.8426C101.284 75.7686 101.694 81.9748 105.149 85.8269C105.802 86.5466 106.504 87.2215 107.249 87.8471C107.249 88.699 106.554 89.4116 101.045 99.6071C100.56 100.504 100.058 100.693 99.0756 99.9004C98.1262 99.1328 97.1745 98.367 96.2204 97.603C96.5211 95.1968 96.5434 92.7644 96.2867 90.3531C95.8594 92.7485 95.4985 95.1432 95.2038 97.5547C94.3176 97.9292 93.4335 98.3086 92.5452 98.6747C91.327 99.1829 90.7009 99.0191 90.3139 97.5834C89.2167 93.531 87.8574 89.5531 86.2446 85.6743C86.9575 89.7006 87.9052 93.6824 89.083 97.5995C89.2217 98.3397 89.5632 99.0275 90.07 99.5875C90.4106 99.8652 90.8134 100.058 91.2446 100.148C91.6757 100.239 92.1225 100.226 92.5473 100.109C93.3958 99.8634 94.2034 99.4955 94.9443 99.017C88.502 130.246 88.5479 129.572 88.4795 131.454C89.048 130.281 89.4933 129.052 89.8084 127.788C92.4776 118.335 94.5546 108.727 96.0272 99.0184C97.3865 99.8584 98.4743 101.965 100.31 101.723C101.54 101.561 102.263 100.323 102.804 99.2144C107.818 88.9468 107.823 89.1344 107.923 88.4288C109.531 89.8288 110.009 90.5638 108.169 93.9847C105.514 98.9225 105.772 106.366 112.518 106.611C116.113 106.741 118.983 106.546 121.69 105.211C121.013 116.468 117.777 135.246 119.639 127.954C121.439 120.221 122.581 112.352 123.052 104.429C125.333 102.807 127.287 100.773 128.811 98.4332C134.174 90.8249 132.517 78.7464 122.606 78.2067ZM126.118 98.2127C125.413 98.4794 126.052 97.4147 126.184 97.2194C126.696 96.4919 127.115 95.7037 127.431 94.873C128.982 90.5883 127.583 84.4143 123.28 82.7686C122.935 82.637 121.569 82.476 121.474 82.084C121.423 81.874 121.686 81.7242 121.918 81.6766C126.717 80.6798 131.614 86.6508 129.532 93.8468C128.991 95.7067 127.951 97.5162 126.118 98.2099V98.2127Z" fill="#333333"/>
<path d="M108.167 93.9405C110.035 90.479 109.492 89.8028 107.921 88.4336C107.82 89.1336 107.816 88.9516 102.801 99.2192C102.26 100.327 101.538 101.566 100.307 101.728C98.4744 101.969 97.3837 99.8632 96.0245 99.0232C94.5684 108.6 92.5279 118.08 89.9143 127.412C89.5971 128.682 89.1726 129.923 88.6453 131.122C90.9817 129.384 93.771 128.349 96.6823 128.138C98.6973 127.93 100.734 128.096 102.687 128.628C105.618 121.279 108.042 113.741 109.941 106.065C105.69 104.198 105.952 98.0418 108.167 93.9405Z" fill="#86A8C1"/>
<path d="M94.8864 99.0577C94.1637 99.5225 93.3763 99.8796 92.5493 100.117C92.1245 100.234 91.6777 100.248 91.2465 100.157C90.8154 100.066 90.4125 99.8737 90.0719 99.596C89.5652 99.0359 89.2237 98.3481 89.0849 97.608C85.9434 86.2582 86.7154 87.5105 86.279 85.9922C82.8661 91.9058 78.242 103.718 76.0896 114.943C75.2211 119.472 75.8929 126.493 75.6138 129.769C75.6469 129.801 75.6956 129.817 75.7287 129.85C78.1405 131.512 79.6013 132.665 82.4262 132.945C84.5144 133.2 86.6196 132.627 88.284 131.349C88.7359 131.012 88.143 131.936 89.0877 127.359C91.0321 117.914 92.9723 108.501 94.8864 99.0577Z" fill="#86A8C1"/>
<path d="M2.74936 83.2312L10.8729 80.6653C10.9452 80.6419 11.0083 80.5967 11.0536 80.536C11.0989 80.4754 11.124 80.4022 11.1255 80.3267L11.173 71.856C11.1732 71.7801 11.1978 71.7062 11.2432 71.6451C11.2887 71.5841 11.3526 71.539 11.4256 71.5166C11.4986 71.4942 11.577 71.4955 11.6492 71.5204C11.7214 71.5453 11.7836 71.5925 11.8269 71.655L16.8011 78.5283C16.8455 78.5891 16.9076 78.6349 16.9791 78.6595C17.0506 78.6841 17.128 78.6863 17.2008 78.6658L25.325 76.0996C25.3976 76.0776 25.4753 76.0788 25.5472 76.1028C25.6191 76.1269 25.6816 76.1727 25.726 76.2338C25.7704 76.2949 25.7944 76.3682 25.7947 76.4436C25.795 76.5189 25.7716 76.5925 25.7277 76.654L20.6699 83.4787C20.6243 83.539 20.5988 83.612 20.5971 83.6874C20.5954 83.7628 20.6174 83.8369 20.6602 83.8992L25.6344 90.7725C25.6792 90.834 25.7032 90.9081 25.7028 90.984C25.7024 91.06 25.6776 91.1339 25.6322 91.195C25.5867 91.2561 25.5228 91.3012 25.4498 91.3239C25.3768 91.3467 25.2985 91.3457 25.226 91.3213L17.1268 88.6677C17.0527 88.6457 16.9736 88.6468 16.9001 88.6707C16.8266 88.6947 16.7622 88.7404 16.7156 88.8017L11.6564 95.621C11.6099 95.6805 11.5461 95.7243 11.4736 95.7463C11.4011 95.7683 11.3236 95.7674 11.2516 95.7439C11.1797 95.7204 11.1168 95.6753 11.0718 95.6148C11.0267 95.5544 11.0016 95.4815 10.9999 95.4063L11.0474 86.9355C11.0445 86.8603 11.0198 86.7875 10.9763 86.726C10.9328 86.6644 10.8723 86.6166 10.8021 86.5883L2.70288 83.9347C2.63377 83.9022 2.5761 83.8498 2.53735 83.7843C2.49861 83.7188 2.48057 83.6432 2.48558 83.5674C2.49059 83.4916 2.51841 83.419 2.56545 83.3591C2.61248 83.2991 2.67655 83.2546 2.74936 83.2312Z" fill="#86A8C1"/>
<path d="M27.7158 87.7208L31.2786 87.8568C31.3104 87.8578 31.3417 87.8489 31.3682 87.8314C31.3947 87.8139 31.415 87.7887 31.4264 87.7592L32.6569 84.432C32.6679 84.4022 32.6881 84.3766 32.7147 84.359C32.7414 84.3413 32.7729 84.3326 32.8049 84.3341C32.8368 84.3356 32.8674 84.3471 32.8923 84.3671C32.9171 84.3871 32.9349 84.4145 32.9429 84.4452L33.9164 87.8519C33.9252 87.8821 33.9431 87.9089 33.9677 87.9287C33.9923 87.9484 34.0224 87.9602 34.054 87.9624L37.6171 88.0984C37.6488 88.1 37.6792 88.1114 37.7041 88.131C37.7289 88.1506 37.747 88.1774 37.7557 88.2077C37.7644 88.238 37.7634 88.2703 37.7527 88.3C37.742 88.3297 37.7223 88.3553 37.6962 88.3734L34.7302 90.346C34.7036 90.3633 34.6831 90.3884 34.6717 90.4178C34.6602 90.4473 34.6583 90.4795 34.6662 90.5101L35.6397 93.9168C35.6485 93.9474 35.6473 93.9799 35.6363 94.0097C35.6253 94.0396 35.605 94.0652 35.5784 94.0828C35.5517 94.1004 35.5201 94.1092 35.4882 94.1079C35.4562 94.1065 35.4255 94.0951 35.4005 94.0752L32.594 91.8885C32.568 91.8694 32.5367 91.8586 32.5043 91.8577C32.472 91.8567 32.4401 91.8656 32.413 91.8832L29.4472 93.8535C29.4204 93.8703 29.389 93.8786 29.3573 93.877C29.3257 93.8754 29.2953 93.8642 29.2704 93.8448C29.2454 93.8253 29.2271 93.7987 29.2181 93.7686C29.209 93.7384 29.2095 93.7062 29.2196 93.6764L30.4502 90.3492C30.4598 90.3192 30.4605 90.2871 30.4522 90.2567C30.4439 90.2263 30.4269 90.199 30.4034 90.1779L27.5968 87.9912C27.5743 87.9686 27.5591 87.9399 27.5532 87.9086C27.5474 87.8774 27.5511 87.8451 27.5639 87.816C27.5767 87.7868 27.598 87.7622 27.6251 87.7452C27.6522 87.7283 27.6838 87.7198 27.7158 87.7208Z" fill="#86A8C1"/>
<path d="M69.2846 40.8019C75.1689 36.354 75.838 25.8827 71.3346 20.2418C66.4502 14.1249 55.8588 11.7388 48.8951 15.3408C39.9002 19.9944 37.5982 35.6335 45.0574 42.6316C49.4889 46.7886 55.8365 48.5206 64.8558 45.2297C67.0489 47.2181 70.0054 49.2016 72.95 49.706C73.0181 49.719 73.0885 49.7124 73.1529 49.6868C73.2173 49.6613 73.273 49.618 73.3134 49.562C73.3538 49.506 73.3772 49.4397 73.3808 49.3709C73.3844 49.3021 73.3681 49.2338 73.3337 49.1739C72.1971 47.2146 69.9684 42.9926 69.2846 40.8019ZM72.2675 48.7984C69.7207 48.0363 67.2115 46.1422 65.315 44.3034C65.2476 44.2389 65.1633 44.1946 65.0717 44.1755C64.9802 44.1564 64.885 44.1633 64.7972 44.1953C58.0673 46.6119 51.1259 46.6895 45.8919 41.7566C39.058 35.3134 41.2169 20.6949 49.4624 16.4209C55.907 13.0801 65.8495 15.3179 70.4192 20.9672C74.6574 26.207 74.0434 36.2494 68.4968 40.2622C68.4217 40.3159 68.3651 40.3913 68.3345 40.478C68.304 40.5647 68.3009 40.6587 68.3259 40.7472C68.9148 42.8235 71.1902 46.9243 72.2675 48.7984Z" fill="#191919"/>
<path d="M65.4852 25.7892C65.4066 25.1409 65.1357 24.5304 64.707 24.0352C64.2782 23.5401 63.7109 23.1826 63.0772 23.0082C60.7048 22.2759 58.6156 23.6456 57.1741 25.6957C56.7764 25.2921 56.3463 24.9214 55.8881 24.5871C54.2832 23.4786 52.1899 23.444 50.839 25.0721C50.3201 25.7726 49.9552 26.5734 49.7679 27.4229C49.5806 28.2723 49.5752 29.1513 49.7519 30.0029C50.1803 31.9428 52.3964 34.0975 54.0215 35.3196C55.0487 36.0808 56.1426 36.749 57.2899 37.3163C57.353 37.3495 57.4245 37.3636 57.4955 37.3568C57.5666 37.35 57.6341 37.3227 57.6897 37.2782C59.4418 35.842 62.3564 33.3333 63.7219 31.4925C64.7218 30.3076 65.3448 28.8545 65.5117 27.3175C65.5549 26.8085 65.546 26.2964 65.4852 25.7892Z" fill="#86A8C1"/>
<path d="M102.603 40.1689C103.753 40.7751 104.486 40.3435 104.748 40.7683C105.314 41.6799 103.092 41.7975 102.154 40.8226C102.077 40.7596 102.028 40.6708 102.014 40.573C102 40.475 102.023 40.3747 102.08 40.2929C102.136 40.2112 102.221 40.1534 102.318 40.1304C102.414 40.1074 102.516 40.1213 102.603 40.1689ZM107.044 38.6041C107.121 38.6244 107.192 38.6647 107.249 38.7201C107.305 38.7756 107.347 38.8446 107.369 38.9209C107.391 38.9971 107.392 39.0777 107.373 39.1549C107.355 39.232 107.316 39.303 107.262 39.361C106.63 40.1073 102.764 40.1235 100.634 38.4932C100.281 38.1892 100.73 37.6829 101.128 37.8523C104.77 39.5472 106.273 38.3714 107.044 38.6041ZM107.17 36.7706C107.829 36.7231 107.801 37.4557 107.296 37.6488C106.18 37.9615 105.007 38.016 103.868 37.8086C102.729 37.6011 101.654 37.1366 100.724 36.4512C100.367 36.1499 100.821 35.6417 101.218 35.8112C103.48 36.8409 104.502 36.9022 107.17 36.7706ZM107.267 34.6828C108.031 34.6174 108.335 35.4008 107.652 35.6882C106.641 36.0739 102.611 35.6654 101.251 34.7393C100.553 34.268 100.89 33.6426 101.696 33.9356C103.482 34.5565 105.377 34.8111 107.267 34.6828ZM94.4946 27.8307C94.5653 27.8747 94.6169 27.9434 94.6408 28.023C94.6647 28.1027 94.6588 28.1881 94.6239 28.2638C94.589 28.3396 94.5281 28.4009 94.4517 28.4351C93.0301 29.0572 91.5625 29.5692 90.0629 29.9689C88.9618 30.3266 88.8121 29.6947 89.2541 29.3798C90.8711 28.7022 92.5449 28.1681 94.2556 27.7838C94.3382 27.7703 94.4237 27.7867 94.4946 27.8307ZM106.814 19.2233C111.048 19.4675 114.012 22.3844 113.352 26.7709C112.907 29.4974 110.879 31.8971 108.947 33.8237C108.513 34.2841 107.975 33.9244 108.337 33.3928C110.124 30.974 112.15 29.2195 112.39 26.0363C112.691 22.3305 109.749 20.3076 106.612 20.1979C102.8 20.0322 98.8398 23.0762 99.8799 27.0898C100.381 29.0119 101.844 30.6912 101.549 32.7716C101.528 32.8616 101.475 32.9415 101.401 32.9972C101.327 33.0528 101.235 33.0813 101.142 33.0767C101.049 33.0721 100.961 33.0351 100.893 32.9726C100.825 32.9099 100.781 32.8248 100.769 32.7331C100.673 29.9318 98.2339 28.2686 98.6774 25.0497C99.2437 21.127 103.106 19.0398 106.814 19.2233ZM108.409 25.9448C108.477 25.9843 108.528 26.0483 108.552 26.1239C108.575 26.1996 108.57 26.2819 108.535 26.3536C107.34 28.5357 106.396 30.8448 105.723 33.2369C105.712 33.2772 105.694 33.3151 105.669 33.3482C105.644 33.3813 105.611 33.4092 105.574 33.4297C105.538 33.4501 105.498 33.4629 105.457 33.4675C105.415 33.472 105.373 33.4678 105.334 33.4557C105.294 33.4436 105.257 33.4239 105.225 33.3972C105.193 33.3703 105.167 33.3368 105.149 33.2996C105.13 33.2625 105.119 33.2221 105.117 33.1807C105.114 33.1392 105.121 33.0969 105.135 33.0577C105.706 30.5833 106.669 28.2142 107.989 26.04C108.034 25.9745 108.102 25.9279 108.18 25.9102C108.258 25.8925 108.34 25.9053 108.409 25.9448ZM106.936 25.4217C107.017 25.4245 107.094 25.4571 107.153 25.513C107.211 25.569 107.246 25.6443 107.252 25.7248C107.258 25.8053 107.234 25.8851 107.184 25.9491C107.135 26.0131 107.063 26.057 106.983 26.0718C105.804 26.1152 104.625 25.9919 103.482 25.7044C103.774 27.9522 103.803 30.2269 103.57 32.4832C103.535 32.9163 103.099 32.8875 103.09 32.4366C103.06 30.0491 102.902 27.6646 102.618 25.2945C102.599 25.2264 102.598 25.1542 102.616 25.0856C102.634 25.0168 102.671 24.9536 102.722 24.9035C102.773 24.8535 102.837 24.8184 102.906 24.801C102.975 24.7836 103.048 24.7845 103.116 24.8046C104.358 25.1706 105.641 25.3781 106.936 25.4217ZM114.584 32.2476C114.676 32.2479 114.766 32.2847 114.831 32.3502C116.421 33.504 117.895 34.8089 119.231 36.2464C119.27 36.3184 119.285 36.4017 119.274 36.4831C119.263 36.5643 119.227 36.6399 119.17 36.6994C119.113 36.7591 119.038 36.7995 118.957 36.8144C118.876 36.8292 118.792 36.8183 118.718 36.7829C117.143 35.5996 115.675 34.2802 114.333 32.841C114.268 32.7755 114.231 32.6872 114.232 32.595C114.232 32.5027 114.27 32.4141 114.336 32.349C114.402 32.284 114.491 32.2474 114.584 32.2476ZM91.8521 12.9811C91.9408 12.9717 92.03 12.9941 92.1035 13.044C93.7842 14.5422 95.3562 16.1569 96.8081 17.8756C96.8578 17.9387 96.8834 18.0173 96.8808 18.0976C96.8781 18.1781 96.8472 18.2558 96.7932 18.316C96.7392 18.376 96.6655 18.4147 96.5855 18.4265C96.5056 18.4382 96.4243 18.4221 96.3556 18.3802C94.6552 16.8948 93.0626 15.2909 91.5911 13.5806C91.5371 13.51 91.51 13.4217 91.515 13.333C91.5201 13.2444 91.557 13.1604 91.6185 13.096C91.6802 13.0315 91.7633 12.9906 91.8521 12.9811ZM122.703 17.5441C123.044 17.4008 123.445 17.8666 123.121 18.1139C122.282 18.7477 117.35 21.8817 116.586 21.9574C116.227 21.9923 115.886 21.499 117.039 20.8119C118.867 19.6229 120.758 18.5321 122.703 17.5441ZM108.88 6.57369C108.923 6.60351 108.958 6.64355 108.981 6.69006C109.402 7.40858 108.411 13.3652 107.925 14.4507C107.884 14.522 107.819 14.5774 107.743 14.6078C107.666 14.6381 107.581 14.6423 107.502 14.6186C107.424 14.5948 107.355 14.5447 107.309 14.4772C107.262 14.4096 107.24 14.3278 107.246 14.246C107.333 13.4831 108.15 6.98073 108.456 6.62987C108.49 6.58984 108.533 6.55881 108.582 6.53946C108.631 6.52014 108.684 6.51269 108.736 6.51865C108.788 6.52463 108.837 6.54388 108.88 6.57369Z" fill="#86A8C1"/>
</g>
<defs>
<clipPath id="clip0_1564_1652">
<rect width="140" height="140" fill="white"/>
</clipPath>
</defs>
</svg>
