<svg width="126" height="69" viewBox="0 0 126 69" fill="none" xmlns="http://www.w3.org/2000/svg">
<path d="M1.43263 65.9526C5.99074 67.9977 11.0362 68.9599 16.1055 68.7508C21.2321 68.5671 33.671 66.455 42.4137 59.4766C44.703 55.1666 49.3136 54.083 53.8909 52.0358C55.3272 51.3966 56.9008 51.0418 58.3787 50.4834C55.6483 46.9882 51.8741 44.6605 47.5951 42.9994C45.925 42.3507 43.9755 41.5577 42.1342 41.4648C41.6035 42.736 40.73 43.8631 39.5952 44.7407C37.9163 46.2514 35.7423 47.2142 33.4081 47.4808C31.0738 47.7474 28.7087 47.3031 26.6769 46.2161C25.1423 45.2935 23.7727 44.1584 22.617 42.8512C18.9485 43.7354 15.5062 45.2748 12.4875 47.381C9.46872 49.4872 6.93283 52.1189 5.02509 55.1253C2.79333 58.4908 1.32166 61.939 1.43263 65.9526Z" fill="#D9D9D9"/>
<path d="M1.43263 65.9526C5.99074 67.9977 11.0362 68.9599 16.1055 68.7508C21.2321 68.5671 33.671 66.455 42.4137 59.4766C44.703 55.1666 49.3136 54.083 53.8909 52.0358C55.3272 51.3966 56.9008 51.0418 58.3787 50.4834C55.6483 46.9882 51.8741 44.6605 47.5951 42.9994C45.925 42.3507 43.9755 41.5577 42.1342 41.4648C41.6035 42.736 40.73 43.8631 39.5952 44.7407C37.9163 46.2514 35.7423 47.2142 33.4081 47.4808C31.0738 47.7474 28.7087 47.3031 26.6769 46.2161C25.1423 45.2935 23.7727 44.1584 22.617 42.8512C18.9485 43.7354 15.5062 45.2748 12.4875 47.381C9.46872 49.4872 6.93283 52.1189 5.02509 55.1253C2.79333 58.4908 1.32166 61.939 1.43263 65.9526Z" fill="#91ADA4"/>
<path d="M1.43263 65.9526C5.99074 67.9977 11.0362 68.9599 16.1055 68.7508C21.2321 68.5671 33.671 66.455 42.4137 59.4766C44.703 55.1666 49.3136 54.083 53.8909 52.0358C55.3272 51.3966 56.9008 51.0418 58.3787 50.4834C55.6483 46.9882 51.8741 44.6605 47.5951 42.9994C45.925 42.3507 43.9755 41.5577 42.1342 41.4648C41.6035 42.736 40.73 43.8631 39.5952 44.7407C37.9163 46.2514 35.7423 47.2142 33.4081 47.4808C31.0738 47.7474 28.7087 47.3031 26.6769 46.2161C25.1423 45.2935 23.7727 44.1584 22.617 42.8512C18.9485 43.7354 15.5062 45.2748 12.4875 47.381C9.46872 49.4872 6.93283 52.1189 5.02509 55.1253C2.79333 58.4908 1.32166 61.939 1.43263 65.9526Z" fill="#9683AF"/>
<path d="M62.6671 31.5207C62.2881 33.2708 62.2766 35.0711 62.6331 36.8252C62.6442 36.9123 62.6921 36.9918 62.7664 37.0469C62.8407 37.102 62.9356 37.1282 63.0308 37.1199C63.1259 37.1116 63.2137 37.0694 63.2754 37.0024C63.337 36.9355 63.3676 36.849 63.3606 36.7616C63.3398 35.4604 63.3911 32.9045 63.3772 31.5963C63.3836 31.5121 63.3544 31.4289 63.2956 31.364C63.2368 31.299 63.153 31.2574 63.0616 31.2476C62.9701 31.2379 62.8781 31.2608 62.8047 31.3117C62.7312 31.3625 62.6819 31.4374 62.6671 31.5207Z" fill="#333333"/>
<path d="M63.5731 39.9417C63.8456 39.7878 64.112 39.6269 64.3914 39.4883C65.524 38.9159 65.9401 38.7722 66.1322 39.0469C66.3042 39.2937 66.171 39.4921 65.0226 40.3462C64.6564 40.6066 64.2731 40.8459 63.8748 41.0629C63.7796 41.1131 63.6715 41.139 63.5617 41.1379C63.452 41.1367 63.3445 41.1087 63.2506 41.0566C62.622 40.7667 62.0136 40.4415 61.4287 40.0829C61.0993 39.8285 60.5271 39.1169 60.8628 38.8511C61.0708 38.6927 61.1568 38.7601 62.0848 39.2155C63.7007 39.999 63.5037 39.9055 63.5731 39.9417Z" fill="#333333"/>
<path d="M58.5063 28.6658C58.6319 28.7027 59.0313 28.5781 60.641 29.5053C61.0648 29.7495 61.4309 29.3622 61.1265 29.0086C60.8388 28.6378 60.4443 28.3478 59.987 28.1711C59.5297 27.9945 59.0278 27.938 58.5376 28.0082C58.0521 28.11 58.0354 28.5278 58.5063 28.6658Z" fill="#333333"/>
<path d="M65.725 29.335C66.6897 28.7105 66.7805 28.5719 67.9741 28.5236C68.0223 28.5309 68.0717 28.5292 68.1192 28.5186C68.1667 28.508 68.2114 28.4887 68.2506 28.4619C68.2898 28.4351 68.3227 28.4013 68.3473 28.3626C68.372 28.3238 68.3878 28.2809 68.3939 28.2365C68.4 28.192 68.3963 28.1468 68.3829 28.1037C68.3696 28.0605 68.3468 28.0203 68.3161 27.9854C68.2854 27.9506 68.2473 27.9217 68.2042 27.9006C68.161 27.8796 68.1136 27.8667 68.0649 27.8628C67.5233 27.7042 66.9384 27.7231 66.4102 27.9162C65.882 28.1094 65.4435 28.4648 65.1695 28.9217C64.967 29.3268 65.3075 29.6053 65.725 29.335Z" fill="#333333"/>
<path d="M67.5 32.2511C67.7366 32.2323 67.9739 32.2794 68.1808 32.3864C68.3877 32.4933 68.5546 32.6551 68.6595 32.8505C68.7645 33.0459 68.8027 33.2658 68.769 33.4814C68.7353 33.697 68.6315 33.8983 68.471 34.0588C68.3105 34.2194 68.1008 34.3317 67.8695 34.3811C67.6382 34.4306 67.3959 34.4148 67.1746 34.3358C66.9532 34.2569 66.763 34.1185 66.6289 33.9387C66.4947 33.759 66.423 33.5463 66.4229 33.3285C66.4101 33.0547 66.5164 32.7874 66.7183 32.5854C66.9203 32.3834 67.2014 32.2632 67.5 32.2511Z" fill="#333333"/>
<path d="M99.0283 19.6788C99.0283 19.8203 99.0562 19.9604 99.1103 20.0911C99.1644 20.2218 99.2438 20.3405 99.3438 20.4406C99.4438 20.5406 99.5625 20.62 99.6932 20.6741C99.8239 20.7283 99.9639 20.7561 100.105 20.7561C100.247 20.7561 100.387 20.7283 100.518 20.6741C100.648 20.62 100.767 20.5406 100.867 20.4406C100.967 20.3405 101.046 20.2218 101.1 20.0911C101.155 19.9604 101.182 19.8203 101.182 19.6788C101.182 19.5373 101.155 19.3972 101.1 19.2665C101.046 19.1358 100.967 19.0171 100.867 18.917C100.767 18.817 100.648 18.7376 100.518 18.6835C100.387 18.6294 100.247 18.6015 100.105 18.6015C99.9639 18.6015 99.8239 18.6294 99.6932 18.6835C99.5625 18.7376 99.4438 18.817 99.3438 18.917C99.2438 19.0171 99.1644 19.1358 99.1103 19.2665C99.0562 19.3972 99.0283 19.5373 99.0283 19.6788Z" fill="#333333"/>
<path d="M35.0918 22.1923C35.3283 22.1735 35.5654 22.2206 35.7723 22.3274C35.9791 22.4341 36.1459 22.5957 36.251 22.7908C36.356 22.986 36.3944 23.2057 36.3611 23.4212C36.3278 23.6367 36.2243 23.8379 36.0642 23.9986C35.9042 24.1593 35.6949 24.2719 35.4639 24.3218C35.2329 24.3717 34.9908 24.3564 34.7694 24.2781C34.5479 24.1997 34.3574 24.0619 34.2228 23.8827C34.0882 23.7034 34.0157 23.4911 34.0148 23.2735C34.0014 22.9992 34.1074 22.7312 34.3093 22.5285C34.5113 22.3258 34.7927 22.2049 35.0918 22.1923Z" fill="#333333"/>
<path d="M58.7871 33.5058C58.7871 33.6473 58.815 33.7874 58.8691 33.9181C58.9232 34.0488 59.0026 34.1676 59.1026 34.2676C59.2026 34.3676 59.3213 34.447 59.452 34.5011C59.5827 34.5553 59.7227 34.5831 59.8642 34.5831C60.0056 34.5831 60.1456 34.5553 60.2763 34.5011C60.407 34.447 60.5257 34.3676 60.6257 34.2676C60.7258 34.1676 60.8051 34.0488 60.8592 33.9181C60.9133 33.7874 60.9412 33.6473 60.9412 33.5058C60.9412 33.3643 60.9133 33.2243 60.8592 33.0935C60.8051 32.9628 60.7258 32.8441 60.6257 32.744C60.5257 32.644 60.407 32.5646 60.2763 32.5105C60.1456 32.4564 60.0056 32.4285 59.8642 32.4285C59.7227 32.4285 59.5827 32.4564 59.452 32.5105C59.3213 32.5646 59.2026 32.644 59.1026 32.744C59.0026 32.8441 58.9232 32.9628 58.8691 33.0935C58.815 33.2243 58.7871 33.3643 58.7871 33.5058Z" fill="#333333"/>
<path d="M92.4676 18.7817C92.704 18.763 92.9411 18.8102 93.1478 18.9171C93.3546 19.024 93.5213 19.1856 93.6263 19.3807C93.7312 19.5759 93.7695 19.7956 93.7361 20.0111C93.7027 20.2265 93.5992 20.4277 93.439 20.5883C93.2789 20.7489 93.0697 20.8615 92.8387 20.9113C92.6076 20.9611 92.3656 20.9458 92.1442 20.8675C91.9228 20.7891 91.7324 20.6513 91.5978 20.472C91.4632 20.2928 91.3907 20.0805 91.3899 19.8629C91.3831 19.727 91.4056 19.5912 91.4561 19.4632C91.5066 19.3353 91.5841 19.2178 91.6842 19.1173C91.7843 19.0169 91.905 18.9356 92.0395 18.878C92.1739 18.8204 92.3194 18.7877 92.4676 18.7817Z" fill="#333333"/>
<path d="M26.376 23.4507C26.376 23.7364 26.4895 24.0104 26.6914 24.2125C26.8934 24.4145 27.1674 24.528 27.453 24.528C27.7387 24.528 28.0126 24.4145 28.2146 24.2125C28.4166 24.0104 28.5301 23.7364 28.5301 23.4507C28.5301 23.165 28.4166 22.8909 28.2146 22.6889C28.0126 22.4869 27.7387 22.3734 27.453 22.3734C27.1674 22.3734 26.8934 22.4869 26.6914 22.6889C26.4895 22.8909 26.376 23.165 26.376 23.4507Z" fill="#333333"/>
<path d="M30.8403 22.4847C30.7084 23.881 30.7491 25.2865 30.9617 26.6744C30.963 26.718 30.9737 26.7609 30.9931 26.8007C31.0125 26.8406 31.0403 26.8765 31.0748 26.9064C31.1094 26.9364 31.15 26.9599 31.1945 26.9754C31.2389 26.991 31.2862 26.9984 31.3338 26.9972C31.3813 26.996 31.4281 26.9862 31.4715 26.9684C31.515 26.9506 31.5541 26.9251 31.5868 26.8934C31.6195 26.8617 31.6451 26.8244 31.662 26.7837C31.679 26.743 31.6871 26.6996 31.6857 26.656C31.8257 25.2571 31.7817 23.8478 31.5547 22.4586C31.4513 22.0293 30.9131 22.0389 30.8403 22.4847Z" fill="#333333"/>
<path d="M61.9593 44.9595C59.0091 43.7073 57.5568 41.0528 57.1671 38.0809C57.1508 37.9416 57.0772 37.8132 56.9612 37.7219C56.8452 37.6307 56.6956 37.5835 56.5429 37.59C55.7818 37.6582 55.0153 37.6582 54.2543 37.59C53.1398 37.4182 52.5364 36.856 52.8943 35.8639C53.0306 35.4333 53.3 35.0481 53.6698 34.7547C54.0395 34.4613 54.494 34.2723 54.9783 34.2104C56.2225 34.0127 56.468 34.2804 56.7523 34.0343C56.9257 33.8842 56.8855 33.7615 56.8911 33.3017C56.9153 30.9043 57.1858 28.5144 57.699 26.1636C57.7176 26.1206 57.7261 26.0744 57.7241 26.0282C57.7221 25.9819 57.7096 25.9366 57.6874 25.895C57.6651 25.8535 57.6337 25.8166 57.5951 25.7868C57.5564 25.7571 57.5115 25.735 57.463 25.7221C57.4145 25.7091 57.3637 25.7056 57.3136 25.7117C57.2636 25.7179 57.2155 25.7335 57.1725 25.7576C57.1294 25.7818 57.0923 25.8139 57.0636 25.8519C57.0348 25.89 57.015 25.9331 57.0055 25.9785C56.3046 27.824 55.8909 29.7508 55.7766 31.7022C55.1435 30.8091 54.7313 29.7998 54.569 28.7451C54.4066 27.6904 54.498 26.6158 54.8368 25.597C54.867 25.5168 54.8621 25.429 54.8232 25.3521C54.7844 25.2751 54.7145 25.2149 54.6283 25.1842C54.5421 25.1534 54.4463 25.1545 54.3609 25.1871C54.2755 25.2197 54.2072 25.2813 54.1704 25.3591C52.6078 28.226 53.4637 30.9588 55.6268 33.4085C55.2816 33.3852 54.9348 33.3905 54.5906 33.4244C52.017 33.7246 50.7291 36.5368 52.3075 37.9289C53.2944 38.7957 54.7071 38.7798 56.045 38.722C56.5658 41.7542 58.1401 44.4049 61.2027 45.7551L61.4454 49.4538C60.8906 49.534 60.8955 49.5613 60.4253 49.6548C60.3289 49.6694 60.2428 49.7185 60.1859 49.7913C60.129 49.8641 60.1059 49.9547 60.1218 50.0431C60.1378 50.1314 60.1913 50.2104 60.2707 50.2626C60.3501 50.3148 60.4489 50.3359 60.5452 50.3213C60.8226 50.2787 61.1001 50.238 61.374 50.2068C61.8643 50.1515 61.9892 50.2456 62.175 50.0682C62.3408 49.9022 62.4171 50.161 62.2915 45.4091C62.2881 45.313 62.2551 45.2198 62.1963 45.1403C62.1375 45.0607 62.0554 44.998 61.9593 44.9595Z" fill="#333333"/>
<path d="M49.4324 20.0639C49.8314 20.8049 50.3692 21.4758 51.0212 22.0462C56.0458 26.0776 62.0129 21.2773 67.8316 24.5265C68.4857 24.8676 69.0589 25.3252 69.5175 25.8723C69.976 26.4195 70.3106 27.0452 70.5017 27.7126C70.5119 27.7554 70.5312 27.7959 70.5584 27.8318C70.5857 27.8677 70.6204 27.8984 70.6606 27.922C70.7008 27.9456 70.7456 27.9618 70.7926 27.9695C70.8396 27.9772 70.8878 27.9764 70.9344 27.967C70.9811 27.9577 71.0252 27.94 71.0644 27.915C71.1036 27.89 71.137 27.8581 71.1628 27.8213C71.1885 27.7844 71.2061 27.7433 71.2145 27.7002C71.223 27.6571 71.222 27.6129 71.2118 27.5702C70.571 24.2867 67.2761 22.5213 63.5928 22.2383C58.7381 21.898 53.8626 24.5055 50.035 19.7103C49.9839 19.637 49.9031 19.5854 49.8105 19.5667C49.7178 19.548 49.6208 19.5639 49.5409 19.6108C49.461 19.6577 49.4047 19.7318 49.3843 19.8167C49.364 19.9017 49.3812 19.9906 49.4324 20.0639Z" fill="#333333"/>
<path d="M52.7279 16.0536C52.8716 16.554 53.1096 17.0275 53.4312 17.4528C54.4964 18.6902 56.0386 19.5057 57.74 19.7314C59.2727 19.9375 60.2568 19.6894 61.4775 19.7161C61.5732 19.7253 61.6692 19.6998 61.7447 19.645C61.8203 19.5903 61.8694 19.5106 61.8818 19.423C61.8877 19.3797 61.8841 19.3358 61.8713 19.2938C61.8585 19.2518 61.8367 19.2125 61.8072 19.1783C61.7777 19.1441 61.7411 19.1156 61.6995 19.0945C61.6579 19.0734 61.6121 19.0601 61.5648 19.0554C58.9891 18.5072 56.8336 19.2729 54.3265 16.7799C53.9867 16.4637 53.6695 16.1276 53.3771 15.7738C53.3583 15.7334 53.3307 15.6968 53.2962 15.6663C53.2616 15.6358 53.2207 15.612 53.1759 15.5964C53.1311 15.5807 53.0833 15.5734 53.0354 15.5751C52.9874 15.5767 52.9404 15.5872 52.8969 15.6058C52.8535 15.6245 52.8146 15.651 52.7826 15.6837C52.7506 15.7165 52.7261 15.7548 52.7106 15.7964C52.6951 15.838 52.6889 15.8821 52.6923 15.926C52.6958 15.9698 52.7088 16.0126 52.7307 16.0517L52.7279 16.0536Z" fill="#333333"/>
<path d="M72.8856 23.9868C73.8566 20.6982 71.2018 17.2558 67.7147 16.3552C65.6203 15.8287 63.0764 16.1555 61.1665 15.5863C59.913 15.2283 58.8004 14.5432 57.9645 13.6149C57.9371 13.58 57.9026 13.5504 57.8628 13.5278C57.823 13.5052 57.7787 13.4899 57.7325 13.483C57.6863 13.4761 57.6391 13.4775 57.5935 13.4873C57.5479 13.4971 57.5049 13.5151 57.4668 13.5401C57.4288 13.5652 57.3966 13.5969 57.3719 13.6334C57.3472 13.6699 57.3306 13.7104 57.323 13.7528C57.3155 13.7952 57.3171 13.8385 57.3278 13.8803C57.3385 13.9221 57.358 13.9616 57.3854 13.9964C58.2013 15.154 59.3964 16.0446 60.7989 16.5403C63.014 17.313 65.2374 16.8627 67.3874 17.4306C70.4111 18.2065 72.7275 21.3437 71.5894 24.1082C71.5328 24.2446 71.5375 24.396 71.6026 24.5292C71.6676 24.6624 71.7876 24.7665 71.9362 24.8186C72.3424 24.9504 72.7366 25.1114 73.1152 25.3C76.1542 26.8346 75.4607 30.3197 73.9689 33.2063C73.3644 32.871 72.6833 32.6686 71.9792 32.6149C71.8912 32.6045 71.8022 32.6244 71.7293 32.6708C71.6565 32.7171 71.605 32.7867 71.5849 32.8659C71.5648 32.9451 71.5774 33.0283 71.6204 33.0995C71.6634 33.1706 71.7337 33.2245 71.8176 33.2509C72.3077 33.3606 72.7758 33.5407 73.2047 33.7844C74.3566 34.4986 74.8442 35.8481 73.575 36.6558C72.7657 37.0566 71.845 37.2285 70.9292 37.1499C70.791 37.1461 70.6555 37.1861 70.5456 37.2631C70.4357 37.3402 70.3581 37.4495 70.3258 37.5729C69.6808 40.3798 68.2024 42.9688 66.0537 45.0537C65.9499 45.151 65.8918 45.2819 65.8921 45.4181C65.9324 47.1613 66.1141 48.1324 66.1987 49.679C66.202 49.7805 66.2474 49.8769 66.3256 49.9486C66.4039 50.0204 66.509 50.062 66.6196 50.0651C67.1302 50.0425 67.6419 50.0527 68.1509 50.0956C68.2465 50.1088 68.3438 50.0866 68.4216 50.0339C68.4993 49.9813 68.551 49.9024 68.5653 49.8148C68.5797 49.7272 68.5555 49.6379 68.4981 49.5667C68.4406 49.4954 68.3547 49.448 68.2591 49.4348C67.8614 49.3717 67.4602 49.3293 67.0573 49.3076C67.0781 48.264 66.9928 46.856 67.0198 45.64C69.178 43.5893 70.6882 41.0395 71.389 38.2629C75.4808 38.1872 76.4712 35.3902 74.5792 33.6591C76.9018 29.7804 77.32 25.723 72.8856 23.9868Z" fill="#333333"/>
<path d="M64.0052 55.963C61.9903 54.4077 60.0674 52.7548 58.2448 51.0114C56.6025 51.4427 54.9864 51.9539 53.4033 52.5428C54.6225 55.5464 55.5983 57.7539 56.7322 60.0879C57.1262 60.9063 57.7594 62.0765 58.8905 62.107C59.9578 62.135 60.763 61.2733 61.2707 60.5171C62.2771 59.0153 63.1867 57.4607 63.9948 55.8613L64.0052 55.963Z" fill="#C0879C"/>
<path d="M64.7109 55.3272C66.7259 53.7717 68.6487 52.1186 70.4714 50.3749C71.8654 50.7817 73.2317 51.2642 74.5632 51.8198C73.9777 54.4349 73.1139 56.991 71.9839 59.4514C71.59 60.2693 70.9568 61.4394 69.8257 61.4706C68.7584 61.4979 67.9532 60.6368 67.4455 59.8807C66.4393 58.3788 65.5299 56.8242 64.722 55.2248L64.7109 55.3272Z" fill="#C0879C"/>
<path d="M31.943 15.994C31.8473 17.3905 31.5367 18.7676 31.0206 20.0845C30.9781 20.1638 30.9717 20.2554 31.0029 20.3391C31.034 20.4227 31.1002 20.4916 31.1867 20.5306C31.2732 20.5696 31.3731 20.5754 31.4644 20.5468C31.5556 20.5183 31.6307 20.4576 31.6732 20.3783C32.6145 19.0718 32.9658 17.4812 32.6532 15.9418C32.6511 15.8979 32.6395 15.8548 32.6188 15.8151C32.5982 15.7754 32.5691 15.74 32.5332 15.7108C32.4973 15.6817 32.4553 15.6595 32.4099 15.6456C32.3644 15.6317 32.3163 15.6263 32.2686 15.6298C32.2208 15.6333 32.1743 15.6456 32.1318 15.666C32.0893 15.6864 32.0517 15.7144 32.0213 15.7484C31.991 15.7824 31.9684 15.8217 31.9549 15.8639C31.9414 15.9061 31.9374 15.9503 31.943 15.994Z" fill="#333333"/>
<path d="M35.1312 15.87C35.0736 16.6026 34.8698 18.7077 34.3774 19.5223C34.35 19.5586 34.3308 19.5995 34.3207 19.6426C34.3106 19.6857 34.3098 19.7302 34.3185 19.7736C34.336 19.8612 34.3907 19.9389 34.4706 19.9895C34.5505 20.0401 34.6491 20.0595 34.7446 20.0434C34.8402 20.0274 34.9248 19.9772 34.98 19.9039C35.4521 19.3246 35.775 18.6547 35.9243 17.9446C36.0736 17.2345 36.0455 16.5026 35.8421 15.8039C35.6992 15.3708 35.1659 15.4261 35.1312 15.87Z" fill="#333333"/>
<path d="M41.6559 23.6366C43.4181 20.5516 43.3751 15.8041 42.0762 12.6414C38.2978 3.47595 25.5321 5.55936 23.869 12.7375C22.958 13.1484 22.1404 13.7143 21.4597 14.405C20.8348 14.3209 20.1997 14.323 19.5754 14.4113C18.2869 14.7212 17.1648 15.4496 16.4178 16.461C14.6639 18.6157 14.3587 21.3153 14.0307 23.9699C13.6666 27.0861 14.1458 30.4484 13.5223 33.5869C13.0972 35.8694 11.4224 39.2132 9.21278 38.0882C9.08954 38.0252 8.94606 38.0037 8.80737 38.0277C8.66868 38.0517 8.54357 38.1196 8.45385 38.2195C8.36413 38.3194 8.31549 38.445 8.31642 38.5744C8.31735 38.7039 8.36778 38.8289 8.45892 38.9277C11.9044 42.6335 19.031 41.9676 22.4848 38.5048C24.2775 36.5699 25.2455 34.1052 25.2096 31.5664C25.8351 32.9124 26.9732 34.0037 28.4116 34.6369C28.481 35.517 28.7952 39.0333 28.8791 39.9154C28.0033 40.2338 27.1018 40.489 26.1826 40.6785C26.1358 40.6864 26.0911 40.7027 26.0511 40.7264C26.0111 40.7501 25.9766 40.7809 25.9495 40.8168C25.9225 40.8528 25.9034 40.8933 25.8934 40.936C25.8835 40.9787 25.8828 41.0228 25.8914 41.0658C25.9 41.1088 25.9177 41.1498 25.9436 41.1864C25.9695 41.2231 26.003 41.2548 26.0422 41.2796C26.0814 41.3044 26.1256 41.3219 26.1722 41.331C26.2188 41.3402 26.2669 41.3408 26.3137 41.3329C27.415 41.1858 28.4992 40.9458 29.5525 40.6162C29.6502 40.5838 29.7338 40.5234 29.7909 40.4438C29.8481 40.3643 29.8756 40.2699 29.8694 40.1748C29.832 39.1808 29.6676 35.7269 29.6239 34.9936C30.3438 35.1711 31.0898 35.2428 31.8342 35.206C32.2149 35.1812 33.4376 34.9835 33.3426 34.5237C33.2885 34.2578 33.233 34.2648 31.8272 34.1656C29.832 34.0098 28.4179 33.7948 27.2028 32.404C26.427 31.3796 25.7977 30.2682 25.3303 29.097C25.2757 28.983 25.181 28.8891 25.0613 28.8303C24.9416 28.7715 24.8038 28.7512 24.6701 28.7726C21.5867 29.2566 20.631 27.5643 21.5423 26.1824C21.7764 25.8158 22.0951 25.5006 22.4761 25.2589C22.857 25.0172 23.2911 24.8549 23.7477 24.7832C23.9689 24.7731 24.0806 24.5988 24.1236 24.4017C24.2179 23.9705 26.1514 17.9149 26.9011 14.7541C28.4193 16.1024 29.1544 18.7333 27.8846 20.3976C27.829 20.4678 27.8055 20.5551 27.8191 20.641C27.8327 20.7268 27.8823 20.8044 27.9574 20.8571C28.0325 20.9099 28.1271 20.9337 28.221 20.9234C28.3149 20.9131 28.4007 20.8696 28.4602 20.8021C30.4021 18.6742 29.5698 14.8832 26.8207 13.3028C26.7378 13.2565 26.6439 13.2292 26.547 13.2233C26.4502 13.2173 26.3532 13.2329 26.2643 13.2686C26.1754 13.3044 26.0972 13.3593 26.0364 13.4287C25.9756 13.4981 25.9339 13.5799 25.9149 13.6673C25.0765 17.6191 23.8136 20.1286 23.4314 24.1409C22.9171 24.1885 22.419 24.3334 21.9688 24.5664C20.3147 20.9751 19.9277 16.6226 23.2691 14.37C24.4578 13.5973 24.9239 13.6488 25.003 13.1941C25.9371 8.34424 32.8329 6.14318 37.2617 8.736C40.8306 10.8099 42.1233 14.7993 42.0359 18.6398C42.0554 20.2588 41.6989 21.8631 40.9901 23.346C40.3618 23.1267 39.689 23.0353 39.0184 23.0782C39.0057 21.6734 38.707 20.2831 38.1376 18.9788C38.1098 18.8965 38.0477 18.8276 37.9649 18.7869C37.8821 18.7462 37.7851 18.737 37.6949 18.7613C37.6048 18.7856 37.5287 18.8414 37.483 18.9167C37.4374 18.9921 37.4259 19.0808 37.451 19.1639C37.6383 20.4886 38.0565 22.4709 38.2992 23.7206C38.3074 23.7972 38.3445 23.8689 38.404 23.9232C38.4636 23.9775 38.542 24.0111 38.6256 24.0182C38.7093 24.0253 38.793 24.0054 38.8624 23.962C38.9318 23.9186 38.9826 23.8543 39.0059 23.7803C40.7592 23.8516 42.649 25.1438 41.7537 26.8266C41.5037 27.3292 41.0955 27.7518 40.5816 28.04C39.3083 28.7587 38.474 28.3828 38.2992 29.0436C37.8672 30.7607 37.0911 32.5503 35.6021 33.6619C35.5266 33.7165 35.4669 33.7873 35.4282 33.8681C35.3895 33.9488 35.373 34.037 35.3802 34.1249C35.5716 36.1854 35.5792 37.0503 35.8955 39.5866C35.9038 39.675 35.9415 39.7591 36.0035 39.8273C36.0655 39.8955 36.1488 39.9447 36.2422 39.9681L39.1613 40.6416C39.2073 40.6527 39.2552 40.6554 39.3023 40.6495C39.3494 40.6437 39.3948 40.6293 39.4359 40.6074C39.477 40.5854 39.513 40.5562 39.5418 40.5215C39.5706 40.4868 39.5916 40.4472 39.6037 40.405C39.6159 40.3629 39.6188 40.3189 39.6124 40.2757C39.606 40.2325 39.5903 40.1908 39.5664 40.1532C39.5424 40.1155 39.5106 40.0825 39.4728 40.0561C39.4349 40.0297 39.3917 40.0104 39.3457 39.9993L36.8213 39.2272C36.752 38.0513 36.6133 34.7819 36.5821 34.3246C38.008 33.0573 38.9862 31.4268 39.3901 29.6439C40.0332 29.5141 40.6497 29.291 41.2162 28.9831C43.4056 27.7335 44.0312 24.9467 41.6559 23.6366ZM21.3481 24.9467C19.169 26.5461 19.8688 29.2375 22.3676 29.8322C23.0323 29.976 23.7194 30.0115 24.3975 29.9371C24.6319 32.743 23.8573 35.828 21.7302 37.8586C19.1572 40.344 14.073 41.1885 10.8356 39.3589C13.0071 38.7935 14.3289 35.8267 14.7277 33.777C15.2825 30.5718 14.9961 28.3128 15.1279 25.2437C15.235 23.3598 15.5258 21.4886 15.9968 19.6523C16.3578 18.2057 17.1835 16.8916 18.3673 15.8798C18.7065 15.5914 19.1074 15.3709 19.5445 15.2322C19.9815 15.0935 20.4453 15.0396 20.9063 15.074C18.7578 18.0242 19.5782 21.7669 21.3481 24.9467Z" fill="#333333"/>
<path d="M22.047 42.0405C12.0027 44.4209 4.28442 52.0823 0.829281 60.9165C0.816549 60.9586 0.794753 60.998 0.765177 61.0323C0.735602 61.0665 0.698844 61.095 0.657071 61.1161C0.615298 61.1371 0.569354 61.1503 0.521947 61.1548C0.474539 61.1593 0.426627 61.1551 0.381033 61.1423C0.335439 61.1296 0.293086 61.1086 0.256468 61.0806C0.21985 61.0527 0.189709 61.0183 0.167821 60.9794C0.145933 60.9406 0.13274 60.8982 0.129019 60.8546C0.125299 60.811 0.131127 60.7672 0.146159 60.7257C3.11445 50.6235 12.3231 43.0084 22.1441 40.9695C22.2514 40.9464 22.3638 40.9531 22.4669 40.9888C22.5701 41.0245 22.6593 41.0875 22.7232 41.1699C24.2788 43.2635 26.7096 45.4098 29.3928 45.9644C29.484 45.9852 29.5629 46.0375 29.6131 46.1104C29.6633 46.1832 29.6809 46.2711 29.6622 46.3555C29.6435 46.44 29.59 46.5146 29.5128 46.5637C29.4356 46.6129 29.3407 46.6329 29.2479 46.6194C26.3614 46.1488 23.8293 44.1583 22.047 42.0405Z" fill="#333333"/>
<path d="M43.071 40.9336C42.1139 42.595 40.7221 44.0125 39.0203 45.059C37.3186 46.1055 35.3601 46.7482 33.3207 46.9295C33.2286 46.936 33.1374 46.9095 33.0661 46.8557C32.9947 46.8019 32.9489 46.7249 32.938 46.6408C32.9272 46.5567 32.9522 46.472 33.0079 46.4044C33.0636 46.3369 33.1456 46.2917 33.2368 46.2783C36.1718 45.8102 40.5535 43.3974 42.1653 40.0878C42.2191 39.976 42.3117 39.8835 42.4287 39.8249C42.5457 39.7662 42.6806 39.7446 42.8123 39.7635C47.3202 40.4141 52.7387 42.6323 57.875 46.9359C57.9123 46.9641 57.943 46.9988 57.9654 47.0381C57.9879 47.0774 58.0015 47.1203 58.0056 47.1645C58.0096 47.2087 58.004 47.2531 57.989 47.2953C57.9741 47.3374 57.9501 47.3764 57.9185 47.4099C57.8869 47.4435 57.8483 47.4709 57.8049 47.4905C57.7616 47.5102 57.7144 47.5217 57.6662 47.5244C57.618 47.5271 57.5696 47.5209 57.524 47.5062C57.4784 47.4915 57.4364 47.4687 57.4006 47.4389C53.6667 44.6833 47.9728 41.7292 43.071 40.9336Z" fill="#333333"/>
<path d="M30.0364 30.5653C30.9484 31.228 32.7141 31.2076 33.9895 30.3427C34.4632 30.0171 35.4521 29.0307 34.9604 28.7191C34.5956 28.4749 34.5582 28.8781 33.3653 29.4632C30.8686 30.7351 30.0572 28.8838 29.4601 29.3239C29.1189 29.5891 29.6834 30.3065 30.0364 30.5653Z" fill="#333333"/>
<path d="M93.5378 26.3863C93.8631 26.7975 94.289 27.1331 94.7814 27.366C95.2737 27.5989 95.8187 27.7227 96.3727 27.7275C96.9266 27.7322 97.4741 27.6178 97.9711 27.3934C98.4681 27.169 98.9008 26.8408 99.2345 26.4353C99.2663 26.4026 99.2909 26.3645 99.3067 26.3232C99.3225 26.2818 99.3293 26.238 99.3267 26.1943C99.324 26.1505 99.312 26.1077 99.2913 26.0682C99.2706 26.0286 99.2416 25.9933 99.206 25.964C99.1704 25.9348 99.1289 25.9123 99.0838 25.8978C99.0387 25.8833 98.9909 25.8771 98.9432 25.8795C98.8955 25.8819 98.8487 25.8929 98.8056 25.9119C98.7626 25.9309 98.724 25.9575 98.6921 25.9901C97.1844 27.3161 95.4048 26.8347 94.0455 25.9227C93.6467 25.6594 93.25 26.0391 93.5378 26.3863Z" fill="#333333"/>
<path d="M95.5482 19.2234C95.4137 20.0184 95.3783 24.1407 96.2112 24.1019C96.6086 24.0898 96.5996 23.7127 96.6759 22.7835C96.7224 22.1883 96.6995 22.1266 96.6995 19.5541C96.6995 19.135 96.6995 18.127 96.2515 18.078C95.8263 18.0259 95.5975 18.9608 95.5482 19.2234Z" fill="#333333"/>
<path d="M113.767 20.1643C115.343 19.3897 115.841 17.7222 115.807 16.0674C115.738 13.0707 114.23 10.6197 111.147 8.85876C111.058 4.73263 107.186 1.32832 102.666 1.8778C101.983 1.34554 101.186 0.951652 100.326 0.721999C99.4656 0.492346 98.5622 0.432117 97.6748 0.545267C96.7874 0.658416 95.9362 0.942384 95.1769 1.37853C94.4177 1.81468 93.7676 2.39314 93.2694 3.07595C92.1796 2.8989 91.0567 3.04155 90.0605 3.4836C87.674 4.63406 86.1323 8.38815 87.4646 10.6585C88.1484 11.4923 87.7781 10.3348 87.1594 12.8621C86.7375 14.3608 86.5885 15.9131 86.7184 17.4563C83.7008 17.1225 81.0488 20.3341 83.8055 22.5847C84.526 23.107 85.4261 23.3762 86.3438 23.3441C86.803 27.1599 88.3828 31.0151 92.3082 32.4384C92.3817 33.4031 92.4531 34.296 92.6209 35.5749C90.0835 36.3811 87.6629 37.4686 85.4131 38.8132C85.3722 38.8364 85.3367 38.8667 85.3087 38.9026C85.2808 38.9384 85.2608 38.979 85.2501 39.022C85.2395 39.065 85.2382 39.1095 85.2465 39.1529C85.2547 39.1963 85.2723 39.2378 85.2982 39.2749C85.3242 39.312 85.3579 39.344 85.3975 39.3691C85.437 39.3941 85.4816 39.4117 85.5287 39.4207C85.5757 39.4298 85.6242 39.4302 85.6714 39.4219C85.7186 39.4135 85.7636 39.3967 85.8036 39.3723C88.2227 38.137 90.7779 37.1404 93.4261 36.3991C93.5453 36.3601 93.6465 36.2851 93.7131 36.1864C93.7798 36.0877 93.8079 35.9713 93.793 35.856C93.6494 34.5644 93.5288 33.0101 93.4761 32.0212C93.4693 31.9123 93.4277 31.8078 93.3566 31.7205C93.2854 31.6331 93.1878 31.567 93.0759 31.5302C89.2525 30.3219 87.8502 26.4132 87.4937 22.7374C87.4805 22.5954 87.4084 22.4635 87.2922 22.3689C87.1761 22.2742 87.0248 22.224 86.8695 22.2286C86.442 22.2556 86.0125 22.2359 85.59 22.1701C84.1336 21.9113 83.259 20.5573 84.169 19.3362C84.4646 18.9392 84.8695 18.6209 85.3425 18.4136C85.8156 18.2063 86.34 18.1174 86.8626 18.1559C87.2566 17.9765 87.6945 17.8935 88.1338 17.9149C88.464 17.4697 88.8003 17.0417 89.1173 16.5908C89.6319 15.8518 92.0682 11.9413 92.2853 11.5031C93.5336 13.6482 96.3452 15.1103 98.9528 14.4031C99.3634 16.5437 100.949 18.2914 103.303 18.4599C103.302 19.2187 103.477 19.9691 103.814 20.6621C104.151 21.355 104.644 21.9751 105.26 22.4817C105.077 23.0331 104.75 23.7867 104.588 24.2472C103.574 27.1904 101.906 30.3359 98.7843 31.527C98.668 31.5708 98.5694 31.6465 98.5018 31.7438C98.4343 31.841 98.4012 31.955 98.407 32.0701L98.6768 36.0131C98.6855 36.1438 98.7449 36.2673 98.8442 36.3613C98.9435 36.4553 99.0763 36.5136 99.2185 36.5257C101.635 36.6859 105.345 37.8116 107.602 38.5913C107.691 38.6237 107.791 38.6222 107.879 38.5872C107.967 38.5522 108.036 38.4865 108.072 38.4046C108.107 38.3227 108.105 38.2313 108.067 38.1505C108.029 38.0697 107.957 38.0062 107.868 37.9738C105.15 36.9562 103.013 35.898 99.8378 35.4935L99.6464 32.3875C101.515 31.4993 103.034 30.0969 103.989 28.3771C104.798 26.9681 105.382 25.4596 105.723 23.898C105.452 26.3846 106.561 28.7517 109.216 29.4595L109.348 30.194C108.14 31.6103 108.139 33.6441 108.489 35.4058C108.515 35.5352 108.59 35.652 108.701 35.7352C108.812 35.8185 108.952 35.8627 109.095 35.8598C110.868 35.8497 112.563 35.3511 114.29 35.1647C114.44 35.1481 114.578 35.0813 114.678 34.977C114.777 34.8728 114.831 34.7385 114.829 34.6C114.794 32.6527 114.012 30.3263 112.032 29.5568C111.507 29.6442 110.977 29.702 110.444 29.7298C109.92 29.7361 109.85 29.2789 110.256 29.1002C110.783 28.9385 111.327 28.8319 111.88 28.7822C112.932 27.9706 113.625 26.8356 113.83 25.5893C114.036 24.3431 113.74 23.0709 112.997 22.0105C113.386 21.4488 113.648 20.8209 113.767 20.1643ZM89.9093 13.121C89.0121 14.4706 88.2391 15.8865 87.5984 17.3539C87.7205 16.6118 87.6928 16.898 87.8946 15.4829C88.2594 13.0192 88.5825 12.3788 88.6373 11.4681C89.4188 11.7009 90.2627 11.6874 91.0349 11.43C90.6215 11.9731 90.2734 12.5499 89.9113 13.121H89.9093ZM91.8303 4.89798C90.3372 5.64079 89.8191 7.21861 89.6804 8.91727C89.6844 8.96047 89.6791 9.00398 89.6647 9.04527C89.6502 9.08657 89.627 9.12484 89.5964 9.15786C89.5658 9.19089 89.5283 9.21802 89.4862 9.23769C89.444 9.25735 89.398 9.26917 89.3509 9.27244C89.3037 9.27572 89.2563 9.2704 89.2115 9.25678C89.1666 9.24316 89.1251 9.22152 89.0893 9.19311C89.0536 9.16469 89.0244 9.13007 89.0034 9.09124C88.9823 9.05241 88.9699 9.01014 88.9668 8.96687C88.5832 7.35725 89.3537 4.96031 91.5425 4.28301C91.6314 4.24776 91.732 4.24634 91.8221 4.27908C91.9121 4.31182 91.9843 4.37603 92.0228 4.45758C92.0612 4.53913 92.0628 4.63134 92.0271 4.71394C91.9914 4.79653 91.9213 4.86273 91.8324 4.89798H91.8303ZM93.9844 4.76697H93.7895C93.6944 4.76824 93.6027 4.73481 93.5345 4.67405C93.4663 4.61328 93.4272 4.53015 93.4258 4.44295C93.4244 4.35575 93.4609 4.27162 93.5271 4.20906C93.5934 4.14651 93.684 4.11065 93.7791 4.10939L93.9747 4.10367C94.0221 4.1024 94.0693 4.10981 94.1135 4.12546C94.1577 4.14112 94.1981 4.16471 94.2323 4.19486C94.2664 4.225 94.2937 4.26109 94.3125 4.30102C94.3313 4.34094 94.3411 4.3839 94.3416 4.42737C94.3431 4.51545 94.3066 4.60051 94.2401 4.66409C94.1737 4.72767 94.0825 4.76464 93.9865 4.76697H93.9844ZM112.164 17.0302C112.15 17.072 112.126 17.1107 112.095 17.1441C112.064 17.1774 112.026 17.2049 111.983 17.2248C111.941 17.2448 111.894 17.2568 111.846 17.2602C111.799 17.2637 111.751 17.2585 111.705 17.2449C111.659 17.2313 111.617 17.2096 111.581 17.1811C111.544 17.1526 111.515 17.1178 111.493 17.0787C111.471 17.0395 111.458 16.9969 111.454 16.9531C111.45 16.9093 111.456 16.8653 111.471 16.8236C112.226 14.6047 110.506 12.5817 108.281 11.5349C108.173 11.4832 108.085 11.4025 108.029 11.3037C107.973 11.2049 107.952 11.0927 107.967 10.9822C108.347 8.17319 106.359 6.16482 103.224 6.30155C103.11 6.30638 102.997 6.28172 102.898 6.23042C102.8 6.17912 102.719 6.10325 102.665 6.01155C101.798 4.4579 99.8489 3.89571 97.9715 4.05406C97.9254 4.06123 97.8782 4.05994 97.8327 4.05026C97.7872 4.04058 97.7442 4.02272 97.7063 3.99769C97.6684 3.97267 97.6362 3.94098 97.6117 3.90448C97.5873 3.86798 97.5709 3.82738 97.5637 3.78505C97.5489 3.69906 97.5718 3.6112 97.6274 3.54065C97.683 3.47011 97.7668 3.42262 97.8605 3.40856C100.145 2.89979 102.267 3.39139 103.534 5.18925C104.324 5.14809 105.115 5.26714 105.85 5.53793C106.584 5.80872 107.245 6.2246 107.784 6.75602C108.324 7.28743 108.729 7.92132 108.972 8.61263C109.214 9.30393 109.287 10.0357 109.186 10.7558C111.734 12.1422 113.147 14.4839 112.164 17.0302Z" fill="#333333"/>
<path d="M88.2917 47.9277C86.8953 47.8017 85.5088 47.5959 84.1403 47.3114C84.1569 44.8948 83.8435 39.1825 83.8365 39.117C83.6888 37.8381 83.6368 37.5971 83.3081 37.5907C82.9613 37.585 82.9252 37.8597 82.7997 38.7145C82.6185 41.5253 82.7741 44.346 83.2637 47.1257C81.6809 46.7985 80.1449 46.304 78.6864 45.6522C79.6475 44.8909 80.5438 44.0634 81.3676 43.177C82.0465 42.4139 82.2047 42.2371 81.9869 42.0069C81.7504 41.7525 81.4557 41.9668 81.0243 42.2135C80.8045 42.3412 80.592 42.4792 80.3876 42.6269C79.8033 43.104 79.2492 43.6112 78.728 44.1462C78.3867 44.4686 78.0912 44.8293 77.8486 45.2197C76.7127 44.6124 75.7567 43.7585 75.0648 42.7331C75.0194 42.6621 74.9573 42.6012 74.8829 42.5551C74.8086 42.509 74.7239 42.4787 74.6351 42.4665C74.5463 42.4543 74.4556 42.4605 74.3698 42.4846C74.2839 42.5087 74.2051 42.5502 74.139 42.6059C72.3078 44.0405 70.7827 45.7739 69.6408 47.7184C69.6154 47.7547 69.598 47.7952 69.5896 47.8377C69.5813 47.8801 69.5822 47.9237 69.5922 47.9658C69.6022 48.0079 69.6212 48.0478 69.648 48.0833C69.6749 48.1187 69.709 48.1489 69.7486 48.1722C69.7882 48.1955 69.8324 48.2114 69.8786 48.2191C69.9249 48.2267 69.9724 48.2259 70.0184 48.2167C70.0643 48.2075 70.1078 48.1901 70.1465 48.1655C70.1851 48.1409 70.218 48.1096 70.2434 48.0733C71.5289 46.5822 72.9273 45.1761 74.4282 43.8651C76.4394 46.4052 80.2302 47.7159 83.5765 48.2183C85.1232 48.4301 86.6826 48.5559 88.246 48.5948C88.3424 48.6004 88.4374 48.5705 88.5099 48.5119C88.5824 48.4533 88.6265 48.3707 88.6326 48.2822C88.6387 48.1937 88.6062 48.1067 88.5422 48.0402C88.4783 47.9737 88.3882 47.9332 88.2917 47.9277Z" fill="#333333"/>
<path d="M125.789 48.5463C123.792 44.9888 120.919 41.9066 117.398 39.5436C117.288 39.4701 117.154 39.4323 117.018 39.4362C116.882 39.4401 116.751 39.4855 116.647 39.5653C115.92 40.1211 115.181 40.6631 114.431 41.1914C113.787 40.6925 113.093 40.2504 112.358 39.8712C112.177 39.7923 111.388 39.5449 111.191 39.8375C111.014 40.1128 111.633 40.6865 111.706 40.745C111.876 40.8804 113.324 41.7701 113.469 41.8547C112.353 42.6096 111.372 43.2259 110.294 43.8631C110.331 42.9467 110.317 42.1937 110.204 39.4114C110.179 38.8943 110.161 36.6971 109.531 36.7072C108.912 36.7263 108.983 38.8333 108.993 39.3592C108.984 41.0452 109.116 42.7293 109.388 44.3967C108.394 44.9856 107.441 45.5611 106.395 46.1068C106.31 46.1452 106.245 46.213 106.215 46.2952C106.185 46.3774 106.191 46.4672 106.233 46.545C106.275 46.6227 106.349 46.682 106.439 46.7098C106.528 46.7376 106.626 46.7316 106.711 46.6931C109.539 45.612 112.233 44.328 117.058 40.7005C120.248 42.9774 122.987 45.7407 125.155 48.8694C125.202 48.9461 125.281 49.0025 125.373 49.0263C125.466 49.0501 125.565 49.0394 125.649 48.9966C125.691 48.9755 125.727 48.9471 125.757 48.9131C125.786 48.879 125.808 48.8399 125.821 48.7981C125.834 48.7563 125.838 48.7125 125.833 48.6693C125.827 48.6261 125.812 48.5843 125.789 48.5463Z" fill="#333333"/>
<path d="M84.1452 55.8487C77.6739 51.9998 75.5399 51.2373 70.6526 49.8528C70.5309 49.8204 70.4025 49.8151 70.278 49.8372C70.1536 49.8593 70.0367 49.9083 69.9369 49.98C68.1123 51.5578 65.9686 53.329 64.1765 55.0925C62.3428 53.5478 60.2442 52.0234 58.4938 50.4087C58.415 50.3356 58.3157 50.2839 58.2069 50.2594C58.098 50.2349 57.9839 50.2386 57.8772 50.27C51.0342 52.2937 47.7684 54.9424 44.0365 59.9704C44.0089 60.005 43.989 60.0443 43.9779 60.0861C43.9668 60.1278 43.9648 60.1711 43.972 60.2135C43.9792 60.256 43.9954 60.2967 44.0197 60.3334C44.0441 60.37 44.0761 60.402 44.1139 60.4273C44.1516 60.4527 44.1945 60.4709 44.24 60.4811C44.2855 60.4912 44.3327 60.4931 44.379 60.4865C44.4253 60.4799 44.4697 60.465 44.5097 60.4427C44.5497 60.4204 44.5845 60.3911 44.6121 60.3564C46.8862 57.5106 49.7642 55.1157 53.0732 53.3157C54.1072 55.8372 54.9852 57.8418 56.194 60.3112C56.7488 61.4433 57.5117 62.6122 58.8807 62.6325C60.1617 62.6471 61.0751 61.767 61.7186 60.7615C62.6244 59.3147 63.2 58.2781 63.6695 57.3604C63.6647 58.2844 63.7569 59.826 63.7964 60.7857C63.8262 62.9871 64.0085 65.1845 64.3423 67.3647C64.3476 67.4539 64.3914 67.5375 64.464 67.5972C64.5365 67.6568 64.6319 67.6875 64.7292 67.6827C64.7771 67.6801 64.8238 67.6688 64.8669 67.6496C64.9099 67.6303 64.9484 67.6033 64.98 67.5703C65.0116 67.5373 65.0357 67.4989 65.051 67.4573C65.0663 67.4156 65.0724 67.3716 65.0691 67.3278C65.101 65.2762 65.18 65.6839 65.0691 62.1377C64.947 58.5763 64.8672 57.4888 64.5982 56.3129C65.0316 55.981 64.2375 55.7298 67.0012 60.1287C68.3883 62.3043 70.2365 62.4055 71.3919 61.3549C73.0023 59.8871 74.5711 54.3554 75.0732 52.3007C78.091 53.4465 80.998 54.8241 83.763 56.4185C83.8453 56.4639 83.9435 56.4783 84.0371 56.4587C84.1307 56.4391 84.2124 56.3871 84.2651 56.3136C84.2908 56.2759 84.308 56.2339 84.3158 56.1901C84.3236 56.1463 84.3219 56.1014 84.3108 56.0582C84.2996 56.015 84.2792 55.9742 84.2508 55.9383C84.2224 55.9023 84.1865 55.8719 84.1452 55.8487ZM60.8316 60.2667C60.3954 60.8874 59.7123 61.6162 58.9126 61.5851C58.7259 61.5648 58.5465 61.5067 58.3874 61.4148C58.2284 61.3229 58.0936 61.1997 57.993 61.054C57.1747 60.1001 54.6391 53.9701 54.1786 52.8501C55.3493 52.417 56.6753 52.0393 58.0804 51.6367C59.7512 53.2368 61.5625 54.7083 63.4961 56.0363C62.7111 57.445 61.7769 58.9077 60.8282 60.2667H60.8316ZM72.899 55.5371C72.5369 56.6373 71.4426 59.7656 70.559 60.5911C69.6574 61.442 68.5915 60.6343 67.8959 59.6308C66.8681 58.168 65.9353 56.6659 65.3347 55.5911C65.7568 55.1837 66.1879 54.7796 66.6281 54.379C68.04 53.329 69.3796 52.1999 70.6395 50.9982C71.824 51.3626 72.7159 51.6914 73.865 52.1468C73.5883 53.2476 73.2679 54.4006 72.8948 55.5371H72.899Z" fill="#333333"/>
</svg>
